<svg width="30" height="30" viewBox="0 0 30 30" fill="none" xmlns="http://www.w3.org/2000/svg">
<path d="M3.28125 3.75C3.54013 3.75 3.75 3.54013 3.75 3.28125C3.75 3.02237 3.54013 2.8125 3.28125 2.8125C3.02237 2.8125 2.8125 3.02237 2.8125 3.28125C2.8125 3.54013 3.02237 3.75 3.28125 3.75Z" fill="white"/>
<path d="M5.15625 3.75C5.41513 3.75 5.625 3.54013 5.625 3.28125C5.625 3.02237 5.41513 2.8125 5.15625 2.8125C4.89737 2.8125 4.6875 3.02237 4.6875 3.28125C4.6875 3.54013 4.89737 3.75 5.15625 3.75Z" fill="white"/>
<path d="M7.03125 3.75C7.29013 3.75 7.5 3.54013 7.5 3.28125C7.5 3.02237 7.29013 2.8125 7.03125 2.8125C6.77237 2.8125 6.5625 3.02237 6.5625 3.28125C6.5625 3.54013 6.77237 3.75 7.03125 3.75Z" fill="white"/>
<path d="M11.25 2.8125C11.1257 2.8125 11.0065 2.86189 10.9185 2.94979C10.8306 3.0377 10.7812 3.15693 10.7812 3.28125C10.7812 3.40557 10.8306 3.5248 10.9185 3.61271C11.0065 3.70061 11.1257 3.75 11.25 3.75H15.4688C15.5931 3.75 15.7123 3.70061 15.8002 3.61271C15.8881 3.5248 15.9375 3.40557 15.9375 3.28125C15.9375 3.15693 15.8881 3.0377 15.8002 2.94979C15.7123 2.86189 15.5931 2.8125 15.4688 2.8125H11.25Z" fill="white"/>
<path d="M18.2812 2.8125C18.1569 2.8125 18.0377 2.86189 17.9498 2.94979C17.8619 3.0377 17.8125 3.15693 17.8125 3.28125C17.8125 3.40557 17.8619 3.5248 17.9498 3.61271C18.0377 3.70061 18.1569 3.75 18.2812 3.75H25.3125C25.4368 3.75 25.556 3.70061 25.644 3.61271C25.7319 3.5248 25.7812 3.40557 25.7812 3.28125C25.7812 3.15693 25.7319 3.0377 25.644 2.94979C25.556 2.86189 25.4368 2.8125 25.3125 2.8125H18.2812Z" fill="white"/>
<path d="M28.5938 16.875C28.4694 16.875 28.3502 16.9244 28.2623 17.0123C28.1744 17.1002 28.125 17.2194 28.125 17.3438V28.125H1.875V11.25C1.875 11.1257 1.82561 11.0065 1.73771 10.9185C1.6498 10.8306 1.53057 10.7812 1.40625 10.7812C1.28193 10.7812 1.1627 10.8306 1.07479 10.9185C0.986886 11.0065 0.9375 11.1257 0.9375 11.25V28.5938C0.9375 28.7181 0.986886 28.8373 1.07479 28.9252C1.1627 29.0131 1.28193 29.0625 1.40625 29.0625H28.5938C28.7181 29.0625 28.8373 29.0131 28.9252 28.9252C29.0131 28.8373 29.0625 28.7181 29.0625 28.5938V17.3438C29.0625 17.2194 29.0131 17.1002 28.9252 17.0123C28.8373 16.9244 28.7181 16.875 28.5938 16.875Z" fill="white"/>
<path d="M28.5938 0.9375H1.40625C1.28193 0.9375 1.1627 0.986886 1.07479 1.07479C0.986886 1.1627 0.9375 1.28193 0.9375 1.40625V9.375C0.9375 9.49932 0.986886 9.61855 1.07479 9.70646C1.1627 9.79436 1.28193 9.84375 1.40625 9.84375C1.53057 9.84375 1.6498 9.79436 1.73771 9.70646C1.82561 9.61855 1.875 9.49932 1.875 9.375V5.625H26.7188C26.8431 5.625 26.9623 5.57561 27.0502 5.48771C27.1381 5.3998 27.1875 5.28057 27.1875 5.15625C27.1875 5.03193 27.1381 4.9127 27.0502 4.82479C26.9623 4.73689 26.8431 4.6875 26.7188 4.6875H9.375V1.875H28.125V15.4688C28.125 15.5931 28.1744 15.7123 28.2623 15.8002C28.3502 15.8881 28.4694 15.9375 28.5938 15.9375C28.7181 15.9375 28.8373 15.8881 28.9252 15.8002C29.0131 15.7123 29.0625 15.5931 29.0625 15.4688V1.40625C29.0625 1.28193 29.0131 1.1627 28.9252 1.07479C28.8373 0.986886 28.7181 0.9375 28.5938 0.9375V0.9375ZM8.4375 4.6875H1.875V1.875H8.4375V4.6875Z" fill="white"/>
<path d="M26.7188 7.5C26.7188 7.37568 26.6694 7.25645 26.5815 7.16854C26.4935 7.08064 26.3743 7.03125 26.25 7.03125H3.75C3.62568 7.03125 3.50645 7.08064 3.41854 7.16854C3.33064 7.25645 3.28125 7.37568 3.28125 7.5V15.9375C3.28125 16.0618 3.33064 16.181 3.41854 16.269C3.50645 16.3569 3.62568 16.4062 3.75 16.4062H26.25C26.3743 16.4062 26.4935 16.3569 26.5815 16.269C26.6694 16.181 26.7188 16.0618 26.7188 15.9375V7.5ZM22.0312 8.4375C22.0312 8.53021 22.0038 8.62084 21.9523 8.69792C21.9007 8.77501 21.8275 8.83509 21.7419 8.87057C21.6562 8.90605 21.562 8.91533 21.4711 8.89724C21.3801 8.87916 21.2966 8.83451 21.231 8.76896C21.1655 8.7034 21.1208 8.61988 21.1028 8.52895C21.0847 8.43802 21.094 8.34377 21.1294 8.25812C21.1649 8.17246 21.225 8.09926 21.3021 8.04775C21.3792 7.99624 21.4698 7.96875 21.5625 7.96875C21.6868 7.96875 21.806 8.01814 21.894 8.10604C21.9819 8.19395 22.0312 8.31318 22.0312 8.4375ZM6.5625 14.0625C6.43818 14.0625 6.31895 14.0131 6.23104 13.9252C6.14314 13.8373 6.09375 13.7181 6.09375 13.5938C6.13192 13.1052 6.29318 12.6344 6.5625 12.225C6.83182 12.6344 6.99308 13.1052 7.03125 13.5938C7.03125 13.7181 6.98186 13.8373 6.89396 13.9252C6.80605 14.0131 6.68682 14.0625 6.5625 14.0625ZM8.72813 15.4688L11.25 10.425L13.7719 15.4688H8.72813ZM14.8219 15.4688L13.65 13.125L14.5312 11.3625L16.5844 15.4688H14.8219ZM18.75 14.0625C18.6257 14.0625 18.5065 14.0131 18.4185 13.9252C18.3306 13.8373 18.2812 13.7181 18.2812 13.5938C18.3194 13.1052 18.4807 12.6344 18.75 12.225C19.0193 12.6344 19.1806 13.1052 19.2188 13.5938C19.2188 13.7181 19.1694 13.8373 19.0815 13.9252C18.9935 14.0131 18.8743 14.0625 18.75 14.0625ZM22.5 14.0625C22.3757 14.0625 22.2565 14.0131 22.1685 13.9252C22.0806 13.8373 22.0312 13.7181 22.0312 13.5938C22.0694 13.1052 22.2307 12.6344 22.5 12.225C22.7693 12.6344 22.9306 13.1052 22.9688 13.5938C22.9688 13.7181 22.9194 13.8373 22.8315 13.9252C22.7435 14.0131 22.6243 14.0625 22.5 14.0625ZM25.7812 15.4688H22.9688V14.9156C23.2423 14.8189 23.4792 14.64 23.6471 14.4033C23.8149 14.1667 23.9054 13.8839 23.9062 13.5938C23.9063 13.05 23.4656 11.25 22.5 11.25C21.5344 11.25 21.0938 13.05 21.0938 13.5938C21.0946 13.8839 21.1851 14.1667 21.3529 14.4033C21.5208 14.64 21.7577 14.8189 22.0312 14.9156V15.4688H19.2188V14.9156C19.4923 14.8189 19.7292 14.64 19.8971 14.4033C20.0649 14.1667 20.1554 13.8839 20.1562 13.5938C20.1562 13.05 19.7156 11.25 18.75 11.25C17.7844 11.25 17.3438 13.05 17.3438 13.5938C17.3446 13.8839 17.4351 14.1667 17.6029 14.4033C17.7708 14.64 18.0077 14.8189 18.2812 14.9156V15.4688H17.6344L14.9484 10.1016C14.9091 10.0248 14.8493 9.96034 14.7757 9.91535C14.7021 9.87035 14.6175 9.84654 14.5312 9.84654C14.445 9.84654 14.3604 9.87035 14.2868 9.91535C14.2132 9.96034 14.1534 10.0248 14.1141 10.1016L13.125 12.075L11.6672 9.16406C11.6279 9.08728 11.5681 9.02284 11.4945 8.97785C11.4209 8.93285 11.3363 8.90904 11.25 8.90904C11.1637 8.90904 11.0791 8.93285 11.0055 8.97785C10.9319 9.02284 10.8721 9.08728 10.8328 9.16406L7.67812 15.4688H7.03125V14.9156C7.30479 14.8189 7.54172 14.64 7.70956 14.4033C7.8774 14.1667 7.96793 13.8839 7.96875 13.5938C7.96875 13.05 7.52812 11.25 6.5625 11.25C5.59688 11.25 5.15625 13.05 5.15625 13.5938C5.15707 13.8839 5.2476 14.1667 5.41544 14.4033C5.58328 14.64 5.82021 14.8189 6.09375 14.9156V15.4688H4.21875V7.96875H20.2406C20.1635 8.18116 20.1388 8.40901 20.1684 8.63302C20.198 8.85703 20.2812 9.0706 20.4109 9.25564C20.5406 9.44068 20.713 9.59174 20.9134 9.69603C21.1139 9.80032 21.3365 9.85478 21.5625 9.85478C21.7885 9.85478 22.0111 9.80032 22.2116 9.69603C22.412 9.59174 22.5844 9.44068 22.7141 9.25564C22.8438 9.0706 22.927 8.85703 22.9566 8.63302C22.9862 8.40901 22.9615 8.18116 22.8844 7.96875H25.7812V15.4688Z" fill="white"/>
<path d="M19.2188 9.84375C19.4776 9.84375 19.6875 9.63388 19.6875 9.375C19.6875 9.11612 19.4776 8.90625 19.2188 8.90625C18.9599 8.90625 18.75 9.11612 18.75 9.375C18.75 9.63388 18.9599 9.84375 19.2188 9.84375Z" fill="white"/>
<path d="M20.625 11.25C20.8839 11.25 21.0938 11.0401 21.0938 10.7812C21.0938 10.5224 20.8839 10.3125 20.625 10.3125C20.3661 10.3125 20.1562 10.5224 20.1562 10.7812C20.1562 11.0401 20.3661 11.25 20.625 11.25Z" fill="white"/>
<path d="M23.4375 10.7812C23.6964 10.7812 23.9062 10.5714 23.9062 10.3125C23.9062 10.0536 23.6964 9.84375 23.4375 9.84375C23.1786 9.84375 22.9688 10.0536 22.9688 10.3125C22.9688 10.5714 23.1786 10.7812 23.4375 10.7812Z" fill="white"/>
<path d="M14.0625 17.8125H7.5C7.37568 17.8125 7.25645 17.8619 7.16854 17.9498C7.08064 18.0377 7.03125 18.1569 7.03125 18.2812C7.03125 18.4056 7.08064 18.5248 7.16854 18.6127C7.25645 18.7006 7.37568 18.75 7.5 18.75H14.0625C14.1868 18.75 14.306 18.7006 14.394 18.6127C14.4819 18.5248 14.5312 18.4056 14.5312 18.2812C14.5312 18.1569 14.4819 18.0377 14.394 17.9498C14.306 17.8619 14.1868 17.8125 14.0625 17.8125Z" fill="white"/>
<path d="M14.0625 19.6875H4.21875C4.09443 19.6875 3.9752 19.7369 3.88729 19.8248C3.79939 19.9127 3.75 20.0319 3.75 20.1562C3.75 20.2806 3.79939 20.3998 3.88729 20.4877C3.9752 20.5756 4.09443 20.625 4.21875 20.625H14.0625C14.1868 20.625 14.306 20.5756 14.394 20.4877C14.4819 20.3998 14.5312 20.2806 14.5312 20.1562C14.5312 20.0319 14.4819 19.9127 14.394 19.8248C14.306 19.7369 14.1868 19.6875 14.0625 19.6875Z" fill="white"/>
<path d="M14.0625 21.5625H4.21875C4.09443 21.5625 3.9752 21.6119 3.88729 21.6998C3.79939 21.7877 3.75 21.9069 3.75 22.0312C3.75 22.1556 3.79939 22.2748 3.88729 22.3627C3.9752 22.4506 4.09443 22.5 4.21875 22.5H14.0625C14.1868 22.5 14.306 22.4506 14.394 22.3627C14.4819 22.2748 14.5312 22.1556 14.5312 22.0312C14.5312 21.9069 14.4819 21.7877 14.394 21.6998C14.306 21.6119 14.1868 21.5625 14.0625 21.5625Z" fill="white"/>
<path d="M14.0625 23.4375H4.21875C4.09443 23.4375 3.9752 23.4869 3.88729 23.5748C3.79939 23.6627 3.75 23.7819 3.75 23.9062C3.75 24.0306 3.79939 24.1498 3.88729 24.2377C3.9752 24.3256 4.09443 24.375 4.21875 24.375H14.0625C14.1868 24.375 14.306 24.3256 14.394 24.2377C14.4819 24.1498 14.5312 24.0306 14.5312 23.9062C14.5312 23.7819 14.4819 23.6627 14.394 23.5748C14.306 23.4869 14.1868 23.4375 14.0625 23.4375Z" fill="white"/>
<path d="M14.0625 25.3125H4.21875C4.09443 25.3125 3.9752 25.3619 3.88729 25.4498C3.79939 25.5377 3.75 25.6569 3.75 25.7812C3.75 25.9056 3.79939 26.0248 3.88729 26.1127C3.9752 26.2006 4.09443 26.25 4.21875 26.25H14.0625C14.1868 26.25 14.306 26.2006 14.394 26.1127C14.4819 26.0248 14.5312 25.9056 14.5312 25.7812C14.5312 25.6569 14.4819 25.5377 14.394 25.4498C14.306 25.3619 14.1868 25.3125 14.0625 25.3125Z" fill="white"/>
<path d="M15.9375 22.5H19.6875C19.8118 22.5 19.931 22.4506 20.019 22.3627C20.1069 22.2748 20.1562 22.1556 20.1562 22.0312V18.2812C20.1562 18.1569 20.1069 18.0377 20.019 17.9498C19.931 17.8619 19.8118 17.8125 19.6875 17.8125H15.9375C15.8132 17.8125 15.694 17.8619 15.606 17.9498C15.5181 18.0377 15.4688 18.1569 15.4688 18.2812V22.0312C15.4688 22.1556 15.5181 22.2748 15.606 22.3627C15.694 22.4506 15.8132 22.5 15.9375 22.5ZM19.2188 18.75V21.5625H16.4062V20.625H17.8125C17.9368 20.625 18.056 20.5756 18.144 20.4877C18.2319 20.3998 18.2812 20.2806 18.2812 20.1562C18.2812 20.0319 18.2319 19.9127 18.144 19.8248C18.056 19.7369 17.9368 19.6875 17.8125 19.6875H16.4062V18.75H19.2188Z" fill="white"/>
<path d="M26.25 17.8125H22.5C22.3757 17.8125 22.2565 17.8619 22.1685 17.9498C22.0806 18.0377 22.0312 18.1569 22.0312 18.2812C22.0312 18.4056 22.0806 18.5248 22.1685 18.6127C22.2565 18.7006 22.3757 18.75 22.5 18.75H26.25C26.3743 18.75 26.4935 18.7006 26.5815 18.6127C26.6694 18.5248 26.7188 18.4056 26.7188 18.2812C26.7188 18.1569 26.6694 18.0377 26.5815 17.9498C26.4935 17.8619 26.3743 17.8125 26.25 17.8125Z" fill="white"/>
<path d="M26.25 19.6875H21.5625C21.4382 19.6875 21.319 19.7369 21.231 19.8248C21.1431 19.9127 21.0938 20.0319 21.0938 20.1562C21.0938 20.2806 21.1431 20.3998 21.231 20.4877C21.319 20.5756 21.4382 20.625 21.5625 20.625H26.25C26.3743 20.625 26.4935 20.5756 26.5815 20.4877C26.6694 20.3998 26.7188 20.2806 26.7188 20.1562C26.7188 20.0319 26.6694 19.9127 26.5815 19.8248C26.4935 19.7369 26.3743 19.6875 26.25 19.6875Z" fill="white"/>
<path d="M26.25 21.5625H21.5625C21.4382 21.5625 21.319 21.6119 21.231 21.6998C21.1431 21.7877 21.0938 21.9069 21.0938 22.0312C21.0938 22.1556 21.1431 22.2748 21.231 22.3627C21.319 22.4506 21.4382 22.5 21.5625 22.5H26.25C26.3743 22.5 26.4935 22.4506 26.5815 22.3627C26.6694 22.2748 26.7188 22.1556 26.7188 22.0312C26.7188 21.9069 26.6694 21.7877 26.5815 21.6998C26.4935 21.6119 26.3743 21.5625 26.25 21.5625Z" fill="white"/>
<path d="M26.25 23.4375H15.9375C15.8132 23.4375 15.694 23.4869 15.606 23.5748C15.5181 23.6627 15.4688 23.7819 15.4688 23.9062C15.4688 24.0306 15.5181 24.1498 15.606 24.2377C15.694 24.3256 15.8132 24.375 15.9375 24.375H26.25C26.3743 24.375 26.4935 24.3256 26.5815 24.2377C26.6694 24.1498 26.7188 24.0306 26.7188 23.9062C26.7188 23.7819 26.6694 23.6627 26.5815 23.5748C26.4935 23.4869 26.3743 23.4375 26.25 23.4375Z" fill="white"/>
<path d="M26.25 25.3125H15.9375C15.8132 25.3125 15.694 25.3619 15.606 25.4498C15.5181 25.5377 15.4688 25.6569 15.4688 25.7812C15.4688 25.9056 15.5181 26.0248 15.606 26.1127C15.694 26.2006 15.8132 26.25 15.9375 26.25H26.25C26.3743 26.25 26.4935 26.2006 26.5815 26.1127C26.6694 26.0248 26.7188 25.9056 26.7188 25.7812C26.7188 25.6569 26.6694 25.5377 26.5815 25.4498C26.4935 25.3619 26.3743 25.3125 26.25 25.3125Z" fill="white"/>
<path d="M7.22813 8.99063C6.9603 8.85331 6.65615 8.80342 6.35849 8.84799C6.06082 8.89255 5.78462 9.02933 5.56875 9.23907C5.49196 9.32874 5.45183 9.44409 5.45639 9.56206C5.46095 9.68004 5.50985 9.79195 5.59333 9.87543C5.67682 9.95891 5.78872 10.0078 5.9067 10.0124C6.02467 10.0169 6.14002 9.9768 6.22969 9.90001C6.27327 9.85607 6.32511 9.8212 6.38223 9.7974C6.43936 9.7736 6.50062 9.76135 6.5625 9.76135C6.62438 9.76135 6.68565 9.7736 6.74277 9.7974C6.7999 9.8212 6.85174 9.85607 6.89532 9.90001C6.98263 9.98661 7.10047 10.0354 7.22344 10.0359C7.28513 10.0363 7.34629 10.0245 7.4034 10.0012C7.46051 9.97782 7.51245 9.94345 7.55625 9.90001C7.59983 9.85607 7.65167 9.8212 7.7088 9.7974C7.76592 9.7736 7.82719 9.76135 7.88907 9.76135C7.95095 9.76135 8.01222 9.7736 8.06934 9.7974C8.12646 9.8212 8.1783 9.85607 8.22188 9.90001C8.30919 9.98661 8.42703 10.0354 8.55 10.0359C8.61169 10.0363 8.67285 10.0245 8.72996 10.0012C8.78707 9.97782 8.83902 9.94345 8.88282 9.90001C8.97012 9.81218 9.01913 9.69338 9.01913 9.56954C9.01913 9.4457 8.97012 9.3269 8.88282 9.23907C8.66999 9.0259 8.39433 8.8867 8.09644 8.84197C7.79855 8.79725 7.49417 8.84936 7.22813 8.99063V8.99063Z" fill="white"/>
</svg>
