<svg width="27" height="27" viewBox="0 0 27 27" fill="none" xmlns="http://www.w3.org/2000/svg">
<path d="M11.25 11.25C11.8063 11.25 12.35 11.0851 12.8125 10.776C13.2751 10.467 13.6355 10.0277 13.8484 9.5138C14.0613 8.99988 14.117 8.43438 14.0085 7.88881C13.8999 7.34324 13.6321 6.8421 13.2387 6.44876C12.8454 6.05543 12.3443 5.78756 11.7987 5.67904C11.2531 5.57052 10.6876 5.62622 10.1737 5.83909C9.65979 6.05196 9.22053 6.41245 8.91149 6.87496C8.60245 7.33747 8.4375 7.88124 8.4375 8.4375C8.4375 9.18342 8.73382 9.89879 9.26126 10.4262C9.78871 10.9537 10.5041 11.25 11.25 11.25V11.25ZM11.25 7.5C11.4354 7.5 11.6167 7.55499 11.7708 7.658C11.925 7.76101 12.0452 7.90743 12.1161 8.07874C12.1871 8.25004 12.2057 8.43854 12.1695 8.6204C12.1333 8.80226 12.044 8.9693 11.9129 9.10041C11.7818 9.23153 11.6148 9.32081 11.4329 9.35699C11.251 9.39316 11.0625 9.3746 10.8912 9.30364C10.7199 9.23268 10.5735 9.11252 10.4705 8.95835C10.3675 8.80418 10.3125 8.62292 10.3125 8.4375C10.3125 8.18886 10.4113 7.9504 10.5871 7.77459C10.7629 7.59877 11.0014 7.5 11.25 7.5V7.5Z" fill="white"/>
<path d="M25.3125 14.0625C25.5611 14.0625 25.7996 13.9637 25.9754 13.7879C26.1512 13.6121 26.25 13.3736 26.25 13.125C26.25 12.8764 26.1512 12.6379 25.9754 12.4621C25.7996 12.2863 25.5611 12.1875 25.3125 12.1875H22.5V7.5H25.3125C25.5611 7.5 25.7996 7.40123 25.9754 7.22541C26.1512 7.0496 26.25 6.81114 26.25 6.5625C26.25 6.31386 26.1512 6.0754 25.9754 5.89959C25.7996 5.72377 25.5611 5.625 25.3125 5.625H22.5V4.6875C22.5 3.4443 22.0061 2.25201 21.1271 1.37294C20.248 0.49386 19.0557 0 17.8125 0H4.6875C3.4443 0 2.25201 0.49386 1.37294 1.37294C0.49386 2.25201 0 3.4443 0 4.6875V21.5625C0 22.8057 0.49386 23.998 1.37294 24.8771C2.25201 25.7561 3.4443 26.25 4.6875 26.25H17.8125C19.0557 26.25 20.248 25.7561 21.1271 24.8771C22.0061 23.998 22.5 22.8057 22.5 21.5625V20.625H25.3125C25.5611 20.625 25.7996 20.5262 25.9754 20.3504C26.1512 20.1746 26.25 19.9361 26.25 19.6875C26.25 19.4389 26.1512 19.2004 25.9754 19.0246C25.7996 18.8488 25.5611 18.75 25.3125 18.75H22.5V14.0625H25.3125ZM20.625 21.5625C20.625 22.3084 20.3287 23.0238 19.8012 23.5512C19.2738 24.0787 18.5584 24.375 17.8125 24.375H4.6875C3.94158 24.375 3.22621 24.0787 2.69876 23.5512C2.17132 23.0238 1.875 22.3084 1.875 21.5625V4.6875C1.875 3.94158 2.17132 3.22621 2.69876 2.69876C3.22621 2.17132 3.94158 1.875 4.6875 1.875H17.8125C18.5584 1.875 19.2738 2.17132 19.8012 2.69876C20.3287 3.22621 20.625 3.94158 20.625 4.6875V21.5625Z" fill="white"/>
<path d="M12.1875 12.1875H10.3125C9.0693 12.1875 7.87701 12.6814 6.99794 13.5604C6.11886 14.4395 5.625 15.6318 5.625 16.875V17.8125C5.625 18.5584 5.92132 19.2738 6.44876 19.8012C6.97621 20.3287 7.69158 20.625 8.4375 20.625H14.0625C14.8084 20.625 15.5238 20.3287 16.0512 19.8012C16.5787 19.2738 16.875 18.5584 16.875 17.8125V16.875C16.875 15.6318 16.3811 14.4395 15.5021 13.5604C14.623 12.6814 13.4307 12.1875 12.1875 12.1875ZM15 17.8125C15 18.0611 14.9012 18.2996 14.7254 18.4754C14.5496 18.6512 14.3111 18.75 14.0625 18.75H8.4375C8.18886 18.75 7.9504 18.6512 7.77459 18.4754C7.59877 18.2996 7.5 18.0611 7.5 17.8125V16.875C7.5 16.1291 7.79632 15.4137 8.32376 14.8863C8.85121 14.3588 9.56658 14.0625 10.3125 14.0625H12.1875C12.9334 14.0625 13.6488 14.3588 14.1762 14.8863C14.7037 15.4137 15 16.1291 15 16.875V17.8125Z" fill="white"/>
</svg>
