<svg width="70" height="70" viewBox="0 0 70 70" fill="none" xmlns="http://www.w3.org/2000/svg">
<path d="M70 35C70 54.3302 54.3302 70 35 70C15.6698 70 0 54.3302 0 35C0 15.6698 15.6698 0 35 0C54.3302 0 70 15.6698 70 35Z" fill="#2ED0E1"/>
<path d="M28.0741 33.495C27.2068 34.389 25.7787 34.4104 24.8842 33.5426L9.03921 18.166C8.14519 17.2981 8.12383 15.8701 8.99168 14.976C9.85898 14.082 11.2876 14.0607 12.1816 14.928L22.8686 25.2994L15.0783 5.57555C14.6206 4.41665 15.1889 3.10661 16.3478 2.64892C17.5067 2.19123 18.8173 2.75947 19.275 3.91837L27.3857 24.454C27.8434 25.6129 27.2751 26.9229 26.1162 27.3806C25.8054 27.5034 25.4844 27.5504 25.1715 27.5339L28.0266 30.3051C28.9206 31.1724 28.9419 32.6005 28.0741 33.495Z" fill="#DCA050"/>
<path d="M15.0783 5.57556C14.6206 4.41719 15.1889 3.10661 16.3478 2.64893C16.5144 2.58324 16.6837 2.54105 16.8535 2.51648C16.806 2.88231 16.8477 3.26469 16.9924 3.63213L25.1031 24.1677C25.1106 24.1864 25.1202 24.2035 25.1277 24.2216L20.7741 19.9967L15.0783 5.57556ZM27.5245 25.5691C27.132 25.6257 26.7389 25.5782 26.3811 25.4382L27.289 26.3189C27.4097 26.0855 27.4909 25.8318 27.5245 25.5691ZM26.2513 31.5991L10.4064 16.222C9.91666 15.7467 9.69076 15.1026 9.72761 14.4708C9.45898 14.5851 9.20797 14.7533 8.99168 14.976C8.12383 15.8701 8.14519 17.2981 9.03921 18.166L24.8842 33.5426C25.7787 34.4104 27.2068 34.389 28.0741 33.495C28.4666 33.0907 28.6749 32.5775 28.7053 32.0563C27.8952 32.4007 26.9232 32.2507 26.2513 31.5991Z" fill="#CE9047"/>
<path d="M49.5548 26.6302C49.5548 31.1607 45.8821 34.8334 41.3517 34.8334C36.8213 34.8334 33.1486 31.1607 33.1486 26.6302C33.1486 25.4217 33.4124 24.2751 33.8813 23.2422H26.7815C25.4864 23.2422 24.9006 20.0256 25.8907 18.3662C28.4387 14.097 31.5624 11.1212 35.0002 9.9527C38.4379 11.1207 41.5611 14.097 44.109 18.3662C44.226 18.5622 44.3205 18.7807 44.3953 19.013C47.4181 20.2221 49.5548 23.176 49.5548 26.6302Z" fill="#FFF5F5"/>
<path d="M32.8335 23.2422H26.7815C25.4864 23.2422 24.9006 20.0256 25.8907 18.3662C28.4387 14.097 31.5624 11.1212 35.0002 9.9527C36.04 10.3062 37.0509 10.8259 38.0261 11.4961C35.7777 13.0412 33.7205 15.3883 31.9432 18.3662C30.9525 20.0256 31.5389 23.2422 32.8335 23.2422Z" fill="#FFF2B4"/>
<path d="M28.7109 30.0781C28.7109 34.6085 25.0382 38.2812 20.5078 38.2812C15.9774 38.2812 12.3047 34.6085 12.3047 30.0781C12.3047 25.5477 15.9774 21.875 20.5078 21.875C25.0382 21.875 28.7109 25.5477 28.7109 30.0781Z" fill="#FFF5F5"/>
<path d="M22.5586 38.0228C21.9033 38.1915 21.216 38.2812 20.5078 38.2812C15.9774 38.2812 12.3047 34.6085 12.3047 30.0781C12.3047 25.5477 15.9774 21.875 20.5078 21.875C21.216 21.875 21.9033 21.9647 22.5586 22.1335C19.0205 23.0441 16.4062 26.2559 16.4062 30.0781C16.4062 33.9004 19.0205 37.1122 22.5586 38.0228Z" fill="#FFF2B4"/>
<path d="M31.3339 21.2336C31.3104 21.8146 31.265 22.3754 31.2015 22.9068C30.6749 22.9714 30.1227 23.0302 29.5486 23.0905C29.1924 23.0232 28.8458 22.9581 28.5077 22.8918C28.3699 23.2075 28.2268 23.53 28.0794 23.8612C27.7039 24.2991 27.3419 24.7205 26.9894 25.1167C26.5162 24.8668 26.0286 24.5859 25.5367 24.2745C22.6657 22.4582 20.7468 20.339 21.2515 19.5412C21.629 18.9441 23.2579 19.257 25.2574 20.2141C24.2758 17.8829 24.0008 15.9571 24.6828 15.5993C25.3642 15.242 26.7923 16.5627 28.1526 18.6952C28.5018 16.5061 29.1699 14.9889 29.876 15.0172C30.8186 15.0551 31.4717 17.8386 31.3339 21.2336Z" fill="#07B128"/>
<path d="M21.6005 24.8556L34.0493 18.3251C36.6385 16.967 39.8166 18.3417 40.6092 21.1562C42.5067 27.8939 42.2044 34.819 39.4102 38.9948C38.5531 40.276 37.0999 41.0381 35.5591 41.0151C30.5347 40.9404 24.6654 37.2527 20.2007 31.8619C18.3358 29.6103 19.0114 26.2137 21.6005 24.8556Z" fill="#E43950"/>
<path d="M40.2928 37.4059C40.0332 37.9709 39.74 38.5023 39.4105 38.9947C38.5533 40.2759 37.1002 41.038 35.5594 41.0151C30.535 40.9403 24.6657 37.2526 20.201 31.8619C18.4728 29.7753 18.9294 26.7087 21.0656 25.1888C21.8672 26.1517 22.7025 27.0724 23.5634 27.9478C23.6526 27.7373 23.8123 27.5552 24.0307 27.4409C24.5322 27.1776 25.1517 27.371 25.415 27.8725C25.6777 28.3739 25.4844 28.9934 24.9829 29.2567C24.9653 29.2658 24.9477 29.2733 24.9295 29.2813C25.5175 29.8298 26.1151 30.3558 26.7208 30.8584C26.8142 30.6848 26.9589 30.5363 27.1464 30.4375C27.6479 30.1748 28.2679 30.3681 28.5307 30.8696C28.7534 31.2936 28.6487 31.801 28.3085 32.107C32.237 35.0374 36.4075 36.9546 40.2928 37.4059ZM32.0191 29.4255C31.5177 29.6882 31.3243 30.3083 31.5871 30.8098C31.8504 31.3112 32.4704 31.5046 32.9719 31.2418C33.4734 30.9785 33.6667 30.3585 33.4034 29.857C33.1401 29.3555 32.5206 29.1622 32.0191 29.4255ZM32.4213 26.5127C32.9228 26.2495 33.1161 25.6299 32.8528 25.1285C32.5895 24.627 31.97 24.4337 31.4685 24.6969C30.967 24.9597 30.7737 25.5797 31.0365 26.0812C31.2998 26.5827 31.9198 26.776 32.4213 26.5127ZM36.6286 22.7615C37.1301 22.4988 37.3234 21.8787 37.0606 21.3772C36.7974 20.8758 36.1778 20.6824 35.6764 20.9457C35.1749 21.2085 34.9816 21.8285 35.2443 22.33C35.5076 22.8315 36.1271 23.0248 36.6286 22.7615ZM36.3706 25.2128C35.8692 25.4761 35.6758 26.0956 35.9391 26.5971C36.2019 27.0986 36.8219 27.2919 37.3234 27.0292C37.8249 26.7659 38.0182 26.1458 37.7549 25.6444C37.4922 25.1429 36.8721 24.9496 36.3706 25.2128ZM27.5186 25.9968C28.0201 25.7336 28.2134 25.1135 27.9507 24.612C27.6874 24.1106 27.0674 23.9172 26.5659 24.1805C26.0644 24.4433 25.8711 25.0633 26.1344 25.5648C26.3971 26.0663 27.0172 26.2596 27.5186 25.9968Z" fill="#C92E43"/>
<path d="M21.875 33.6526C21.875 35.627 20.2744 37.2276 18.3006 37.2276C16.3262 37.2276 14.7256 35.627 14.7256 33.6526C14.7256 31.6787 16.3262 30.0781 18.3006 30.0781C20.2744 30.0781 21.875 31.6787 21.875 33.6526Z" fill="#54469B"/>
<path d="M21.875 33.6526C21.875 34.5573 21.5364 35.3808 20.9825 36.0104C20.9676 36.0104 20.9532 36.0126 20.9382 36.0126C18.9638 36.0126 17.3638 34.412 17.3638 32.4381C17.3638 31.5334 17.7018 30.7099 18.2556 30.0803C18.2706 30.0803 18.285 30.0781 18.3005 30.0781C20.2744 30.0781 21.875 31.6787 21.875 33.6526Z" fill="#6E61B5"/>
<path d="M49.2188 36.9141C49.2188 41.4445 45.546 45.1172 41.0156 45.1172C36.4852 45.1172 32.8125 41.4445 32.8125 36.9141C32.8125 32.3837 36.4852 28.7109 41.0156 28.7109C45.546 28.7109 49.2188 32.3837 49.2188 36.9141Z" fill="#FFF5F5"/>
<path d="M65.0778 12.6331C64.9272 13.1448 64.3899 13.438 63.8778 13.2874C60.3599 12.2518 55.5139 17.7446 53.2943 25.2828C53.1437 25.795 52.6065 26.0876 52.0943 25.937C51.5827 25.7864 51.2895 25.2492 51.4406 24.737C54.042 15.8994 59.7447 10.0558 64.4236 11.4331C64.9357 11.5837 65.2284 12.121 65.0778 12.6331Z" fill="#07B128"/>
<path d="M58.1128 26.2735C58.9983 27.3956 59.3198 28.7521 58.8087 30.3622C57.685 33.9009 52.9661 37.3231 48.8966 36.0307C44.8271 34.7383 42.9477 29.2204 44.0714 25.6823C44.5825 24.0721 45.6276 23.1493 46.9985 22.7439C49.0269 22.1436 51.3639 23.0756 52.447 24.8513C54.3557 24.0256 56.8028 24.6131 58.1128 26.2735Z" fill="#D80D80"/>
<path d="M58.8086 30.3622C58.3878 31.6867 57.4634 32.9951 56.2574 34.0462C55.1616 34.2844 54.0315 34.2769 52.9474 33.9324C48.8778 32.64 46.9985 27.1227 48.1221 23.584C48.2412 23.2091 48.3902 22.8732 48.5643 22.5709C50.1238 22.6665 51.6368 23.5226 52.4469 24.8513C54.3562 24.0257 56.8027 24.6131 58.1133 26.2735C58.9982 27.3956 59.3197 28.7521 58.8086 30.3622Z" fill="#F02399"/>
<path d="M62.447 39.3878C62.447 42.7737 59.3745 45.5183 55.5849 45.5183C53.5351 45.5183 51.6958 44.714 50.4387 43.4408C49.1815 44.714 47.3422 45.5183 45.2925 45.5183C43.2422 45.5183 41.4035 44.714 40.1458 43.4408C38.8886 44.714 37.0499 45.5183 34.9996 45.5183C32.9494 45.5183 31.1106 44.714 29.8534 43.4408C28.5957 44.714 26.757 45.5183 24.7067 45.5183C22.657 45.5183 20.8177 44.714 19.5605 43.4408C18.3028 44.714 16.4641 45.5183 14.4144 45.5183C10.6247 45.5183 7.55225 42.7737 7.55225 39.3878C7.55225 36.0014 10.6247 33.2568 14.4144 33.2568C16.4641 33.2568 18.3028 34.0611 19.5605 35.3343C20.8177 34.0611 22.657 33.2568 24.7067 33.2568C26.757 33.2568 28.5957 34.0611 29.8534 35.3343C31.1106 34.0611 32.9494 33.2568 34.9996 33.2568C37.0499 33.2568 38.8886 34.0611 40.1458 35.3343C41.4035 34.0611 43.2422 33.2568 45.2925 33.2568C47.3422 33.2568 49.1815 34.0611 50.4387 35.3343C51.6958 34.0611 53.5351 33.2568 55.5849 33.2568C59.3745 33.2568 62.447 36.0019 62.447 39.3878Z" fill="#FFF5F5"/>
<path d="M17.3682 44.9207C16.4736 45.303 15.4728 45.5188 14.4143 45.5188C10.6246 45.5188 7.55273 42.7737 7.55273 39.3878C7.55273 36.0019 10.6246 33.2568 14.4143 33.2568C15.4728 33.2568 16.4736 33.4726 17.3682 33.855C15.06 34.8425 13.4653 36.9488 13.4653 39.3878C13.4653 41.8269 15.06 43.9332 17.3682 44.9207Z" fill="#FFF2B4"/>
<path d="M26.2901 36.074C26.2901 38.0479 24.6895 39.6484 22.7151 39.6484C20.7412 39.6484 19.1406 38.0479 19.1406 36.074C19.1406 34.0996 20.7412 32.499 22.7151 32.499C24.6895 32.499 26.2901 34.0996 26.2901 36.074ZM42.9099 30.0781C40.9355 30.0781 39.3349 31.6787 39.3349 33.6526C39.3349 35.627 40.9355 37.2276 42.9099 37.2276C44.8838 37.2276 46.4844 35.627 46.4844 33.6526C46.4844 31.6787 44.8838 30.0781 42.9099 30.0781Z" fill="#54469B"/>
<path d="M26.29 36.074C26.29 36.9781 25.9514 37.8017 25.3976 38.4313C25.3827 38.4313 25.3683 38.4335 25.3533 38.4335C23.3789 38.4335 21.7783 36.8329 21.7783 34.859C21.7783 33.9543 22.1169 33.1308 22.6707 32.5011C22.6857 32.5011 22.7001 32.499 22.7151 32.499C24.6895 32.499 26.29 34.0996 26.29 36.074ZM42.9099 30.0781C42.8944 30.0781 42.88 30.0803 42.8651 30.0803C42.3112 30.7099 41.9732 31.5334 41.9732 32.4381C41.9732 34.412 43.5732 36.0126 45.5476 36.0126C45.5626 36.0126 45.577 36.0104 45.5919 36.0104C46.1458 35.3808 46.4844 34.5573 46.4844 33.6526C46.4844 31.6787 44.8838 30.0781 42.9099 30.0781Z" fill="#6E61B5"/>
<path d="M62.5691 46.4032C61.7333 48.8588 59.4539 50.5229 56.8712 50.5833L51.7021 65.7649C46.738 68.4657 41.0481 70 34.9999 70C28.83 70 23.0344 68.4016 18.0009 65.5988L13.0309 50.5822C10.4712 50.4989 8.22283 48.8289 7.41373 46.384C6.66124 44.1105 8.23992 41.6747 10.6314 41.5534C10.6955 41.5502 10.7601 41.5486 10.8253 41.5486C12.0627 41.5486 13.1607 42.1457 13.847 43.0675C14.5333 42.1457 15.6313 41.5486 16.8692 41.5486C18.1066 41.5486 19.2047 42.1457 19.8909 43.0675C20.5772 42.1457 21.6752 41.5486 22.9126 41.5486C24.1506 41.5486 25.2481 42.1457 25.9348 43.0675C26.6211 42.1457 27.7191 41.5486 28.9565 41.5486C30.194 41.5486 31.292 42.1457 31.9782 43.0675C32.665 42.1457 33.7625 41.5486 35.0005 41.5486C36.2379 41.5486 37.3359 42.1457 38.0222 43.0675C38.709 42.1457 39.8065 41.5486 41.0444 41.5486C42.2818 41.5486 43.3793 42.1457 44.0661 43.0675C44.7524 42.1457 45.8504 41.5486 47.0878 41.5486C48.3258 41.5486 49.4232 42.1457 50.11 43.0675C50.7963 42.1457 51.8943 41.5486 53.1317 41.5486C54.3691 41.5486 55.4672 42.1457 56.1534 43.0675C56.8402 42.1457 57.9377 41.5486 59.1757 41.5486C59.2408 41.5486 59.3049 41.5502 59.369 41.5534C61.768 41.6752 63.3434 44.1292 62.5691 46.4032Z" fill="#F3D373"/>
<path d="M45.1146 51.8623C45.1659 52.6586 44.5352 53.3203 43.7501 53.3203H21.7341C20.251 53.3203 19.2027 54.7713 19.6689 56.1791C19.6876 56.2363 19.709 56.2923 19.7287 56.3495C19.9178 56.2176 20.1426 56.1311 20.3888 56.1092C21.1413 56.0435 21.8041 56.6 21.8698 57.3519L22.226 61.3087C23.4725 63.1112 24.9988 64.6888 26.7361 65.9866L25.982 57.5906C25.9163 56.8382 26.4728 56.1754 27.2248 56.1092C27.9767 56.0435 28.64 56.6 28.7057 57.3519L29.6419 67.7933C30.999 68.4833 32.4409 69.0211 33.9443 69.388V57.4219C33.9443 56.6368 34.6065 56.0061 35.4028 56.0574C36.1296 56.1044 36.6787 56.7404 36.6787 57.4689V69.8569C36.8634 69.8756 37.0477 69.8943 37.2335 69.9076C37.2864 69.9113 37.3393 69.9151 37.3916 69.9188C37.155 69.9348 36.9174 69.9477 36.6787 69.9589C36.6744 69.9594 36.6701 69.9594 36.6653 69.9594C36.5195 69.9653 36.3737 69.977 36.2279 69.9792C36.0794 69.9813 35.931 69.9866 35.782 69.9904C35.5224 69.9963 35.2618 70 35.0001 70C28.8301 70 23.0345 68.4016 18.0011 65.5988L13.0311 50.5817C10.4724 50.4973 8.2262 48.8278 7.41764 46.384C6.66515 44.1105 8.24382 41.6747 10.6353 41.5534C10.6994 41.5502 10.764 41.5486 10.8292 41.5486C11.8829 41.5486 12.8346 41.9828 13.5182 42.6803C12.6386 43.6261 12.2631 45.0339 12.7101 46.384C13.5401 48.8924 15.8846 50.5859 18.5266 50.5859H43.7031C44.4316 50.5859 45.0676 51.1355 45.1146 51.8623ZM43.3992 56.1092C42.6468 56.0435 41.9834 56.6 41.9178 57.3519L40.8545 69.5097C41.7997 69.3506 42.7327 69.1551 43.6508 68.9217L44.642 57.5906C44.7077 56.8382 44.1512 56.1754 43.3992 56.1092ZM50.2352 56.1092C49.4827 56.0435 48.8194 56.6 48.7537 57.3519L47.8608 67.561C48.8354 67.1759 49.7882 66.7465 50.718 66.2782L51.4779 57.5901C51.5436 56.8382 50.9871 56.1754 50.2352 56.1092Z" fill="#F5C02C"/>
</svg>
