<svg width="70" height="70" viewBox="0 0 70 70" fill="none" xmlns="http://www.w3.org/2000/svg">
<path d="M70 35C70 54.3302 54.3302 70 35 70C15.6698 70 0 54.3302 0 35C0 15.6698 15.6698 0 35 0C54.3302 0 70 15.6698 70 35Z" fill="#4CA4FC"/>
<path d="M18.7578 55.8993V66.0085C20.2858 66.8106 21.8804 67.5027 23.5312 68.0753V55.8998C22.7867 56.1722 21.9835 56.3223 21.1445 56.3223C20.3055 56.3223 19.5018 56.1722 18.7578 55.8993Z" fill="#C8F0FC"/>
<path d="M21.1445 56.3223C20.3055 56.3223 19.5018 56.1722 18.7578 55.8998V63.2901C18.7578 61.9923 19.8217 60.9659 21.1194 60.9707H21.1445H21.1696C22.4674 60.9659 23.5312 61.9923 23.5312 63.2901V55.8998C22.7867 56.1722 21.9835 56.3223 21.1445 56.3223Z" fill="#A1E4FF"/>
<path d="M21.1446 51.9595C18.7429 51.9595 16.4791 50.4492 14.4902 47.7837C15.3399 53.1126 17.9963 57.0026 21.1446 57.0026C24.2929 57.0026 26.9493 53.1126 27.799 47.7837C25.8101 50.4498 23.5462 51.9595 21.1446 51.9595Z" fill="#A1E4FF"/>
<path d="M23.2611 56.2667C21.8453 56.2667 20.6976 55.119 20.6976 53.7032C20.6976 53.026 20.9619 52.4124 21.3908 51.9542C21.3091 51.9574 21.2268 51.9601 21.1446 51.9601C18.7429 51.9601 16.4791 50.4498 14.4902 47.7837C15.3399 53.1126 17.9963 57.0026 21.1446 57.0026C21.9628 57.0026 22.7468 56.7383 23.4752 56.256C23.4042 56.2619 23.3332 56.2667 23.2611 56.2667Z" fill="#79CDF7"/>
<path d="M40.1313 57.6237V69.6246C41.7618 69.3853 43.3555 69.0328 44.9048 68.5762V57.6237C44.1603 57.8967 43.3571 58.0462 42.5181 58.0462C41.679 58.0462 40.8753 57.8967 40.1313 57.6237Z" fill="#C8F0FC"/>
<path d="M42.5181 58.0462C41.679 58.0462 40.8753 57.8967 40.1313 57.6237V65.014C40.1313 63.7168 41.1952 62.6904 42.493 62.6946H42.5181H42.5432C43.8409 62.6904 44.9048 63.7168 44.9048 65.014V57.6237C44.1603 57.8967 43.3571 58.0462 42.5181 58.0462Z" fill="#A1E4FF"/>
<path d="M42.5178 53.6402C40.1252 53.6402 37.8239 53.221 35.6738 52.4487C36.226 55.7305 39.079 58.231 42.5178 58.231C45.956 58.231 48.809 55.7305 49.3612 52.4487C47.2116 53.221 44.9104 53.6402 42.5178 53.6402Z" fill="#A1E4FF"/>
<path d="M42.7319 55.4186C42.7319 54.7003 43.0465 54.0568 43.5432 53.613C43.2035 53.6301 42.8617 53.6402 42.5178 53.6402C40.1252 53.6402 37.8239 53.221 35.6738 52.4482C36.226 55.73 39.079 58.2304 42.5178 58.2304C43.3424 58.2304 44.1328 58.0857 44.8666 57.8214C43.6644 57.6793 42.7319 56.6587 42.7319 55.4186Z" fill="#79CDF7"/>
<path d="M21.1443 52.343C28.7989 52.343 35.0527 37.0262 35.4682 17.7345C31.8965 17.7302 31.8922 15.9667 28.3113 15.9667C24.7273 15.9667 24.7273 17.735 21.1432 17.735C17.5586 17.735 17.5586 15.9667 13.9745 15.9667C10.3948 15.9667 10.39 17.7296 6.82031 17.7345C7.23581 37.0262 13.4896 52.343 21.1443 52.343Z" fill="#FFBE4D"/>
<path d="M17.4507 18.1873H17.4502C17.4502 18.1734 17.4438 17.7579 17.4433 17.7345H17.4438C17.44 17.4199 17.4368 17.1048 17.4347 16.7897C16.5781 16.3689 15.6841 15.9667 13.9745 15.9667C10.3948 15.9667 10.39 17.7296 6.82031 17.7345C7.23581 37.0262 13.4891 52.343 21.1437 52.343C22.2663 52.343 23.3579 52.0113 24.4063 51.3886C20.6017 47.7971 17.7204 34.4462 17.4507 18.1873Z" fill="#FFA750"/>
<path d="M13.6366 33.9031C12.7137 33.9031 11.9463 33.1527 11.9463 32.2128C11.9463 31.4282 12.4905 30.7233 13.3071 30.5561C14.326 30.3494 15.3269 31.1297 15.3269 32.2128C15.3269 33.1532 14.5605 33.9031 13.6366 33.9031Z" fill="#FFBE4D"/>
<path d="M15.1088 27.2214C14.4081 27.2214 13.8394 26.6548 13.8394 25.9536C13.8394 25.3864 14.2287 24.8427 14.8605 24.7114C15.6519 24.5528 16.3761 25.1675 16.3761 25.9536C16.3761 26.6532 15.8084 27.2214 15.1088 27.2214Z" fill="#FFBE4D"/>
<path d="M28.7276 36.3528C32.175 36.3528 32.175 34.6523 35.6223 34.6523C39.0697 34.6523 39.0697 36.3528 42.517 36.3528C45.9644 36.3528 45.9644 34.6523 49.4117 34.6523C52.8596 34.6523 52.8596 36.3528 56.3069 36.3528C59.6918 36.3528 59.7569 34.7159 63.0206 34.6561C63.1396 33.6942 63.2021 32.7132 63.2021 31.7166C63.2021 28.0877 62.3866 24.6628 60.9425 21.64C60.5997 20.9228 59.8696 20.471 59.0749 20.471H25.9612C25.166 20.471 24.436 20.9228 24.0936 21.64C22.649 24.6628 21.8335 28.0877 21.8335 31.7166C21.8335 32.7132 21.896 33.6942 22.0151 34.6561C25.2782 34.7159 25.3433 36.3528 28.7276 36.3528Z" fill="#C8F0FC"/>
<path d="M63.2027 31.7166C63.2027 31.5831 63.1989 31.4507 63.1968 31.3177C63.1994 31.5575 63.2 31.7983 63.1973 32.0392C63.1989 31.9318 63.2027 31.8245 63.2027 31.7166Z" fill="#A1E4FF"/>
<path d="M35.7633 34.2443H35.7644C35.452 29.8271 35.9588 25.4729 37.1775 21.64C37.4055 20.9228 37.891 20.4715 38.4203 20.4715H59.0749H25.9612C25.166 20.4715 24.436 20.9228 24.0936 21.64C22.649 24.6633 21.8335 28.0877 21.8335 31.7166C21.8335 32.7137 21.896 33.6942 22.0151 34.6561C25.2782 34.7159 25.3433 36.3528 28.7276 36.3528C32.175 36.3528 32.175 34.6523 35.6223 34.6523C35.6811 34.6523 35.7372 34.6545 35.7943 34.655C35.7922 34.631 35.7644 34.2587 35.7633 34.2443Z" fill="#A1E4FF"/>
<path d="M42.5177 53.8715C53.1433 53.8715 61.896 45.2897 63.0672 34.2443C59.756 34.2892 59.708 35.9426 56.3066 35.9426C52.8587 35.9426 52.8587 34.2422 49.4113 34.2422C45.964 34.2422 45.964 35.9426 42.5167 35.9426C39.0693 35.9426 39.0693 34.2422 35.622 34.2422C32.1746 34.2422 32.1746 35.9426 28.7273 35.9426C25.327 35.9426 25.2789 34.2892 21.9683 34.2443C23.1395 45.2897 31.8921 53.8715 42.5177 53.8715Z" fill="#FE3648"/>
<path d="M35.795 34.6561C35.7945 34.6561 35.7945 34.6561 35.7945 34.6561C35.7923 34.6363 35.764 34.2598 35.763 34.2443C35.716 34.2438 35.6706 34.2422 35.622 34.2422C32.1746 34.2422 32.1746 35.9426 28.7273 35.9426C25.327 35.9426 25.2789 34.2892 21.9683 34.2443C23.1395 45.2897 31.8921 53.8715 42.5177 53.8715C43.941 53.8715 45.3301 53.7166 46.6722 53.4234C40.9802 51.5542 36.5673 44.0309 35.795 34.6561Z" fill="#D32442"/>
<path d="M49.3601 43.8045C47.2869 43.8045 47.0749 40.8533 49.0306 40.4559C50.0459 40.253 51.052 41.0242 51.052 42.1142C51.052 43.0311 50.3028 43.8045 49.3601 43.8045Z" fill="#FC596D"/>
<path d="M44.0706 48.368C43.3897 48.368 42.8027 47.8174 42.8027 47.1007C42.8027 46.2996 43.5344 45.7025 44.3173 45.8563C44.9342 45.9845 45.3379 46.5175 45.3379 47.1007C45.3379 47.7869 44.7777 48.368 44.0706 48.368Z" fill="#FC596D"/>
<path d="M13.754 16.3769C17.4486 16.3769 17.4486 18.1991 21.1432 18.1991C24.8378 18.1991 24.8378 16.3769 28.5319 16.3769C32.0641 16.3769 32.2222 18.0405 35.457 18.1873C35.4789 17.3617 35.4906 16.5285 35.4906 15.6885C35.4906 10.6219 35.0874 5.79559 34.3595 1.40617C34.2254 0.593872 33.5184 0 32.6948 0H9.59364C8.76959 0 8.06303 0.593338 7.92845 1.40617C7.20053 5.79559 6.79785 10.6219 6.79785 15.689C6.79785 16.5291 6.8096 17.3617 6.8315 18.1873C10.0641 18.0405 10.2228 16.3769 13.754 16.3769Z" fill="#C8F0FC"/>
<path d="M18.1407 1.40617C18.2256 0.593338 18.67 0 19.1891 0H9.59364C8.76959 0 8.06303 0.593338 7.92845 1.40617C7.20053 5.79559 6.79785 10.6219 6.79785 15.689C6.79785 16.5291 6.8096 17.3617 6.8315 18.1873C10.0641 18.0405 10.2228 16.3769 13.754 16.3769C15.5954 16.3769 16.5188 16.8298 17.4395 17.2837C17.3823 11.9896 17.6002 6.58333 18.1407 1.40617Z" fill="#A1E4FF"/>
</svg>
