<svg width="70" height="70" viewBox="0 0 70 70" fill="none" xmlns="http://www.w3.org/2000/svg">
<path d="M35 70C54.33 70 70 54.33 70 35C70 15.67 54.33 0 35 0C15.67 0 0 15.67 0 35C0 54.33 15.67 70 35 70Z" fill="#E6F7FE"/>
<path d="M61.5634 57.7901C55.1451 65.2648 45.6254 70 35 70C15.6704 70 0 54.3296 0 35C0 25.1845 4.04084 16.3127 10.5479 9.95633C5.29014 16.0803 2.11268 24.0422 2.11268 32.7465C2.11268 52.076 17.7831 67.7465 37.1127 67.7465C46.6268 67.7465 55.2535 63.9493 61.5634 57.7901Z" fill="#D3EFFD"/>
<path d="M35.0001 60.3521C49.0016 60.3521 60.3522 49.0016 60.3522 35C60.3522 20.9984 49.0016 9.64789 35.0001 9.64789C20.9985 9.64789 9.64795 20.9984 9.64795 35C9.64795 49.0016 20.9985 60.3521 35.0001 60.3521Z" fill="#D3EFFD"/>
<path d="M57.4099 46.8451C53.1508 54.8732 44.7029 60.3521 35.0001 60.3521C21.0212 60.3521 9.64795 48.9789 9.64795 35C9.64795 28.9056 11.8099 23.307 15.4071 18.9296C13.5296 22.4676 12.4649 26.4986 12.4649 30.7747C12.4649 44.7535 23.8381 56.1268 37.817 56.1268C45.7015 56.1268 52.7578 52.5085 57.4099 46.8451Z" fill="#B2E5FB"/>
<path d="M50.0439 23.8197C49.9185 24.2296 49.7185 24.6084 49.4579 24.9408C49.1974 25.2732 48.8763 25.5577 48.5087 25.7761L45.6847 27.5268C44.2101 24.4746 39.3664 21.6197 39.3664 21.6197C39.3664 21.6197 36.5608 16.6817 34.9565 15.693C36.5058 13.9718 39.0537 13.5817 41.0495 14.7577L48.1495 18.9451C49.8312 19.9366 50.6143 21.9521 50.0439 23.8197Z" fill="#F7F9FA"/>
<path d="M47.4819 26.4127L45.6847 27.5268C44.2101 24.4747 39.7889 21.9014 39.7889 21.9014L34.9565 15.693C35.4918 15.1 36.1453 14.6648 36.8537 14.3972H36.8551C38.3368 15.3662 39.7523 16.4577 41.0889 17.662C43.8509 20.1493 45.9256 23.2408 47.4819 26.4127Z" fill="#E9EDF1"/>
<path d="M56.4678 53.6608C56.7174 52.8885 57.2879 52.2613 58.0333 51.94L61.6286 50.3903C61.8327 50.3024 62.0278 50.1923 62.2001 50.052C63.3589 49.1083 63.3667 47.4027 62.3019 46.4434L61.7601 45.9552C59.4351 43.8606 56.2382 43.3493 53.4895 44.3506C53.3386 44.4055 53.1686 44.3766 53.0515 44.2669C50.9762 42.3248 49.5447 39.797 48.9157 37.0208C47.597 31.2011 44.9558 23.99 39.6747 19.232C37.0664 16.882 34.2834 15.1206 31.5326 13.8617L15.7041 14.1549L15.6929 31.2437C17.2386 33.8893 19.443 35.5318 22.0913 37.9179C27.4363 42.7335 34.9985 44.5985 40.9572 45.2855C43.7953 45.6127 47.3551 47.3524 49.507 49.2254C48.6106 52.1651 49.7489 55.0604 52.183 57.2535L55.2984 57.2803L56.4678 53.6608Z" fill="#61AAB8"/>
<path d="M55.2985 57.2803L55.2436 57.4493C55.1506 57.738 54.914 58.1648 54.7196 58.3986L54.7126 58.407C53.8365 59.3789 52.3379 59.4577 51.3661 58.5817L50.8239 58.093C48.4619 55.9648 47.6323 52.7718 48.4055 49.8986C48.4478 49.738 48.3999 49.5662 48.2732 49.4592C46.1577 47.6901 43.5647 46.5887 40.8168 46.2718C34.8577 45.5845 27.2957 43.7197 21.9506 38.9042C19.3027 36.5183 17.2379 33.8901 15.6929 31.2437C16.2261 31.0379 16.0324 29.8878 16.5492 29.6479C17.0903 29.3968 18.341 30.0544 18.8619 29.7676C20.383 32.293 22.3788 34.7944 24.9084 37.0732C30.2534 41.8887 37.8154 43.7535 43.7746 44.4408C46.5224 44.7577 49.1154 45.8592 51.2309 47.6282C51.3577 47.7352 51.4055 47.907 51.3633 48.0676C50.5901 50.9408 51.4196 54.1338 53.7816 56.262L54.3239 56.7507C54.6126 57.0113 54.9478 57.1873 55.2985 57.2803Z" fill="#5595A2"/>
<path d="M31.5323 13.862C29.3887 21.7761 23.3422 28.2902 15.6929 31.2437C11.3197 23.7578 15.0315 12.2568 16.2152 11.8841C19.766 10.7664 25.5735 11.1345 31.5323 13.862Z" fill="#F7F9FA"/>
<path d="M18.8617 29.7676C17.8434 30.3282 16.7842 30.8225 15.6927 31.2437C13.5654 27.5676 12.0764 23.4011 11.973 19.1324C11.9307 16.6127 12.4772 14.5944 13.4941 13.4648C14.2197 12.6701 15.2326 12.1932 16.2547 11.8718C14.0293 14.7789 14.411 22.3803 18.8617 29.7676Z" fill="#E9EDF1"/>
<path d="M21.7574 20.2247C23.002 20.2247 24.011 19.2157 24.011 17.9711C24.011 16.7265 23.002 15.7176 21.7574 15.7176C20.5128 15.7176 19.5039 16.7265 19.5039 17.9711C19.5039 19.2157 20.5128 20.2247 21.7574 20.2247Z" fill="#E9EDF1"/>
<path d="M29.029 62.2083C26.1875 62.3076 21.5841 59.0514 19.0847 57.6761C11.9885 53.771 14.1858 40.1042 14.4083 40.2268L15.6914 40.9328L17.7182 42.0482L27.1128 49.0845L37.9287 53.1697L41.2385 54.991C41.4614 55.1137 41.5256 55.4041 41.3769 55.6106C39.8907 57.6735 37.9285 59.3371 35.6889 60.4789C33.6489 61.5189 31.379 62.1262 29.0294 62.2083C29.0292 62.2083 29.0293 62.2083 29.029 62.2083Z" fill="#FFC736"/>
<path d="M35.6886 60.4789C33.6492 61.5197 31.3788 62.1268 29.0295 62.2085C29.0295 62.2085 29.0295 62.2085 29.0281 62.2085C26.1872 62.3071 23.3633 61.6338 20.8647 60.2578C13.7678 56.3531 10.8438 47.7706 13.8112 40.44C13.9065 40.2045 14.1857 40.1038 14.4083 40.2263L15.6914 40.9324C13.645 47.9056 16.6337 55.6268 23.259 59.2718C25.7576 60.6479 28.5816 61.3211 31.4224 61.2226H31.4238C32.8886 61.1718 34.3224 60.9155 35.6886 60.4789Z" fill="#FAAA0A"/>
<path d="M28.8975 57.9907C26.8131 58.0637 24.7399 57.5675 22.9014 56.5559C20.1823 55.0594 18.2085 52.5938 17.3438 49.613C16.6113 47.0879 16.749 44.449 17.7179 42.0482L26.8304 47.0627L27.4034 48.4103L28.8772 48.189L37.9283 53.1697C35.8441 56.051 32.4972 57.8648 28.8975 57.9907Z" fill="#FFE07D"/>
<path d="M18.0986 52.6056L26.7423 47.1169L26.831 47.062L28.8775 48.1887L28.8789 48.2704L26.7845 49.5873L19.0845 54.4366L18.0986 52.6056Z" fill="#FFC736"/>
<path d="M29.0661 59.3901C29.0098 59.3944 27.5929 59.3887 26.9506 59.3014L26.7844 49.5873L26.7422 47.1169L26.8309 47.062L28.8774 48.1887L28.8788 48.2704L29.0661 59.3901Z" fill="#FFC736"/>
</svg>
