<svg width="30" height="26" viewBox="0 0 30 26" fill="none" xmlns="http://www.w3.org/2000/svg">
<path d="M25.8 21.4H29.4V0.399994H4.80001V3.99999H0.600006V25.6H25.8V21.4ZM6.00001 1.59999H28.2V20.2H25.8V3.99999H6.00001V1.59999ZM4.80001 5.19999H24.6V9.75159L22.2 7.35159L12 17.5516L6.00001 11.5516L1.80001 15.7516V5.19999H4.80001ZM24.6 24.4H1.80001V17.4484L6.00001 13.2484L12 19.2484L22.2 9.04839L24.6 11.4484V21.4V24.4Z" fill="white"/>
<path d="M12 13C13.6542 13 15 11.6542 15 10C15 8.3458 13.6542 7 12 7C10.3458 7 9 8.3458 9 10C9 11.6542 10.3458 13 12 13ZM12 8.2C12.9924 8.2 13.8 9.0076 13.8 10C13.8 10.9924 12.9924 11.8 12 11.8C11.0076 11.8 10.2 10.9924 10.2 10C10.2 9.0076 11.0076 8.2 12 8.2Z" fill="white"/>
</svg>
