<svg width="70" height="70" viewBox="0 0 70 70" fill="none" xmlns="http://www.w3.org/2000/svg">
<path d="M35 70C54.33 70 70 54.33 70 35C70 15.67 54.33 0 35 0C15.67 0 0 15.67 0 35C0 54.33 15.67 70 35 70Z" fill="#E19974"/>
<path d="M35.0002 63.0066C50.4678 63.0066 63.0068 50.4676 63.0068 35C63.0068 19.5324 50.4678 6.99344 35.0002 6.99344C19.5326 6.99344 6.99365 19.5324 6.99365 35C6.99365 50.4676 19.5326 63.0066 35.0002 63.0066Z" fill="#DC8758"/>
<path d="M26.2675 41.7605C35.913 41.7605 43.7322 33.9412 43.7322 24.2957C43.7322 14.6502 35.913 6.83102 26.2675 6.83102C16.622 6.83102 8.80273 14.6502 8.80273 24.2957C8.80273 33.9412 16.622 41.7605 26.2675 41.7605Z" fill="#F3F0F3"/>
<path d="M26.268 6.83102C25.5528 6.83102 24.848 6.87505 24.1553 6.95858C32.8044 8.00161 39.5074 15.3654 39.5074 24.2957C39.5074 33.2261 32.8044 40.5899 24.1553 41.6329C24.8479 41.7164 25.5528 41.7605 26.268 41.7605C35.9135 41.7605 43.7327 33.9412 43.7327 24.2957C43.7327 14.6502 35.9135 6.83102 26.268 6.83102Z" fill="#E2DEE2"/>
<path d="M26.2677 32.183C30.6237 32.183 34.155 28.6518 34.155 24.2957C34.155 19.9397 30.6237 16.4084 26.2677 16.4084C21.9116 16.4084 18.3804 19.9397 18.3804 24.2957C18.3804 28.6518 21.9116 32.183 26.2677 32.183Z" fill="#FFD15B"/>
<path d="M26.268 16.4084C25.5359 16.4084 24.8279 16.5103 24.1553 16.6969C27.4849 17.6209 29.9299 20.6717 29.9299 24.2957C29.9299 27.9197 27.4849 30.9706 24.1553 31.8946C24.8279 32.0812 25.5359 32.183 26.268 32.183C30.624 32.183 34.1553 28.6517 34.1553 24.2957C34.1553 19.9398 30.624 16.4084 26.268 16.4084Z" fill="#FFC344"/>
<path d="M19.4611 59.9516C18.3687 59.3551 17.9668 57.9861 18.5631 56.8937L20.2673 53.7726C20.8638 52.6802 22.2328 52.2782 23.3252 52.8746C24.4176 53.4711 24.8195 54.8401 24.2231 55.9325L22.5189 59.0536C21.9224 60.146 20.5533 60.548 19.4611 59.9516Z" fill="#DBF1D0"/>
<path d="M23.4347 56.8996L19.8802 54.9589C17.7895 53.8173 17.0201 51.1969 18.1617 49.1062L19.0225 47.5297C20.1641 45.439 22.7844 44.6696 24.8751 45.8112L28.4295 47.7519C30.5202 48.8935 31.2897 51.5139 30.1481 53.6046L29.2873 55.1811C28.1457 57.2718 25.5254 58.0412 23.4347 56.8996Z" fill="#97DA7B"/>
<path d="M28.4294 47.7519L24.875 45.8112C24.8491 45.7971 24.8229 45.7847 24.7969 45.771C26.8294 46.9343 27.567 49.5147 26.4394 51.5796L25.5787 53.1561C24.4511 55.221 21.8816 55.9958 19.8042 54.9149C19.8296 54.9293 19.8544 54.9448 19.8802 54.9589L23.4346 56.8996C25.5253 58.0412 28.1457 57.2717 29.2873 55.181L30.1481 53.6045C31.2895 51.5138 30.5201 48.8935 28.4294 47.7519Z" fill="#80D261"/>
<path d="M45.4814 57.0978C44.4189 57.746 43.0322 57.4102 42.3839 56.3478L40.5317 53.312C39.8836 52.2495 40.2193 50.8628 41.2818 50.2145C42.3442 49.5663 43.731 49.9021 44.3793 50.9645L46.2314 54.0003C46.8797 55.0629 46.5438 56.4497 45.4814 57.0978Z" fill="#DBF1D0"/>
<path d="M44.8228 52.131L41.3657 54.2402C39.3321 55.4808 36.6779 54.838 35.4373 52.8045L34.5019 51.2712C33.2613 49.2376 33.904 46.5834 35.9375 45.3428L39.3946 43.2336C41.4282 41.993 44.0824 42.6357 45.323 44.6693L46.2584 46.2026C47.499 48.2362 46.8563 50.8904 44.8228 52.131Z" fill="#97DA7B"/>
<path d="M39.3947 43.2337L35.9376 45.3429C35.9124 45.3582 35.8885 45.3748 35.8638 45.3905C37.8871 44.2111 40.4907 44.8617 41.716 46.8699L42.6514 48.4032C43.8767 50.4116 43.2639 53.0244 41.2896 54.284C41.3149 54.2693 41.3406 54.2555 41.3657 54.2401L44.8228 52.131C46.8564 50.8904 47.4991 48.2361 46.2584 46.2026L45.3229 44.6693C44.0825 42.6357 41.4282 41.993 39.3947 43.2337Z" fill="#80D261"/>
<path d="M59.2368 41.876C58.5945 42.942 57.2096 43.2854 56.1436 42.6431L53.0976 40.8077C52.0316 40.1654 51.6882 38.7804 52.3305 37.7144C52.9728 36.6484 54.3577 36.305 55.4237 36.9473L58.4697 38.7827C59.5358 39.425 59.8793 40.8099 59.2368 41.876Z" fill="#DBF1D0"/>
<path d="M56.356 37.7763L54.2659 41.245C53.0364 43.2853 50.3858 43.9426 48.3454 42.7133L46.8069 41.7862C44.7667 40.5567 44.1093 37.9061 45.3387 35.8657L47.4289 32.397C48.6584 30.3568 51.3089 29.6994 53.3493 30.9288L54.8878 31.8559C56.9282 33.0853 57.5856 35.736 56.356 37.7763Z" fill="#97DA7B"/>
<path d="M47.429 32.397L45.3389 35.8657C45.3237 35.891 45.31 35.9167 45.2954 35.9421C46.5441 33.9609 49.1536 33.3338 51.1686 34.548L52.7071 35.4751C54.7222 36.6893 55.3869 39.2894 54.2186 41.3191C54.2342 41.2942 54.2506 41.2703 54.2658 41.245L56.356 37.7763C57.5855 35.7361 56.9281 33.0854 54.8877 31.8559L53.3492 30.9288C51.3093 29.6993 48.6586 30.3566 47.429 32.397Z" fill="#80D261"/>
<path d="M46.8981 17.5942C47.2288 13.9115 50.5121 11.2038 54.2032 11.5963C57.7758 11.9763 60.4224 15.2009 60.1014 18.7794C60.0995 18.8006 60.0976 18.8217 60.0954 18.8427C60.0016 19.7891 60.355 20.7106 61.0291 21.3814C61.9402 22.288 62.4287 23.605 62.214 24.9972C61.8878 27.1127 59.9695 28.6568 57.8329 28.5298C56.0708 28.4249 54.6417 27.2546 54.1115 25.6962C53.9362 25.181 53.4591 24.8376 52.917 24.7897C52.9136 24.7894 52.9102 24.7892 52.9069 24.7887C49.2609 24.4613 46.5706 21.2402 46.8981 17.5942Z" fill="#FFF0AD"/>
<path d="M61.0287 21.3813C60.3547 20.7106 60.0013 19.7889 60.0951 18.8426C60.0971 18.8215 60.0992 18.8005 60.1011 18.7793C60.4221 15.2008 57.7756 11.9761 54.2029 11.5962C53.2174 11.4913 52.2618 11.6095 51.3828 11.9063C54.2166 12.865 56.1529 15.6894 55.8757 18.7793C55.8738 18.8003 55.8718 18.8215 55.8697 18.8426C55.7759 19.7889 56.1293 20.7104 56.8033 21.3813C57.7144 22.2879 58.2029 23.6049 57.9882 24.9971C57.7914 26.2738 57.0141 27.3416 55.9595 27.9605C56.5114 28.2847 57.1461 28.4889 57.8325 28.5297C59.9692 28.6568 61.8875 27.1126 62.2137 24.9971C62.4283 23.6049 61.9397 22.2879 61.0287 21.3813Z" fill="#FFE177"/>
</svg>
