<svg width="29" height="28" viewBox="0 0 29 28" fill="none" xmlns="http://www.w3.org/2000/svg">
<path d="M14.3781 0.00046863C14.2522 0.00481166 14.1308 0.0486816 14.0312 0.125859L0.231201 10.8942C0.105638 10.9921 0.0241087 11.1359 0.00454932 11.2939C-0.0150101 11.4519 0.0290024 11.6112 0.126905 11.7368C0.224807 11.8624 0.368579 11.9439 0.526593 11.9634C0.684607 11.983 0.843919 11.939 0.969482 11.8411L1.80034 11.193V26.9677C1.80036 27.1268 1.86358 27.2794 1.9761 27.3919C2.08861 27.5044 2.24122 27.5676 2.40034 27.5677H10.6996C10.7644 27.5784 10.8305 27.5784 10.8953 27.5677H17.8996C17.9644 27.5784 18.0305 27.5784 18.0953 27.5677H26.4003C26.5595 27.5676 26.7121 27.5044 26.8246 27.3919C26.9371 27.2794 27.0003 27.1268 27.0003 26.9677V11.193L27.8312 11.8411C27.8934 11.8896 27.9645 11.9253 28.0405 11.9463C28.1165 11.9673 28.1959 11.9732 28.2741 11.9635C28.3523 11.9538 28.4279 11.9288 28.4965 11.8899C28.5651 11.851 28.6253 11.799 28.6738 11.7368C28.7223 11.6746 28.758 11.6035 28.779 11.5275C28.8 11.4515 28.8059 11.3722 28.7962 11.2939C28.7865 11.2157 28.7615 11.1401 28.7226 11.0715C28.6837 11.0029 28.6317 10.9427 28.5695 10.8942L24.0003 7.32938V2.96766H20.4003V4.51922L14.7695 0.125859C14.6578 0.0392914 14.5192 -0.00511173 14.3781 0.00046863V0.00046863ZM14.4003 1.36102L25.8003 10.2567V26.3677H18.6003V14.9677H10.2003V26.3677H3.00034V10.2567L14.4003 1.36102ZM21.6003 4.16766H22.8003V6.39305L21.6003 5.45555V4.16766ZM11.4003 16.1677H17.4003V26.3677H11.4003V16.1677Z" fill="white"/>
</svg>
