<svg width="70" height="70" viewBox="0 0 70 70" fill="none" xmlns="http://www.w3.org/2000/svg">
<g clip-path="url(#clip0_103_232)">
<path d="M49.5768 61.1699V62.7189C49.5768 64.9201 48.2881 66.9136 46.2849 67.8258C43.9253 68.9004 40.2324 70 35 70C29.7677 70 26.0747 68.9004 23.7153 67.8258C21.7121 66.9134 20.4233 64.9201 20.4233 62.7189V61.1699H49.5768Z" fill="#8DB9C2"/>
<path d="M65.8356 34.1187C65.8356 51.1487 52.0301 64.9542 35.0001 64.9542C17.9701 64.9542 4.16455 51.1487 4.16455 34.1187H65.8356Z" fill="#EFF3F5"/>
<path d="M57.1458 34.1187C57.1458 49.6736 45.6275 62.5361 30.6553 64.648C32.0751 64.8483 33.5253 64.9542 35.0003 64.9542C52.0303 64.9542 65.8359 51.1487 65.8359 34.1187H57.1458Z" fill="#C9E2E7"/>
<path d="M35.0001 49.5365C52.0301 49.5365 65.8356 42.6337 65.8356 34.1187C65.8356 25.6037 52.0301 18.7009 35.0001 18.7009C17.9701 18.7009 4.16455 25.6037 4.16455 34.1187C4.16455 42.6337 17.9701 49.5365 35.0001 49.5365Z" fill="#8DB9C2"/>
<path d="M35.0003 45.3316C27.5139 45.3316 20.2521 43.8475 15.0768 41.2598C10.8771 39.1598 8.36963 36.4904 8.36963 34.1187C8.36963 31.7471 10.8771 29.0776 15.0768 26.9776C20.2523 24.39 27.5141 22.9059 35.0003 22.9059C42.4864 22.9059 49.7484 24.39 54.9237 26.9776C59.1235 29.0776 61.6309 31.7471 61.6309 34.1187C61.6309 36.4904 59.1235 39.1598 54.9237 41.2598C49.7484 43.8475 42.4866 45.3316 35.0003 45.3316Z" fill="#C9E2E7"/>
<path d="M10.5376 38.1839C11.6654 39.2712 13.2018 40.3223 15.0767 41.2598C20.2521 43.8475 27.514 45.3316 35.0001 45.3316C42.4863 45.3316 49.7483 43.8475 54.9236 41.2598C56.7986 40.3223 58.3349 39.2712 59.4627 38.1839C59.0633 35.9982 56.8423 33.6387 53.3507 31.7431C48.5838 29.1554 41.8953 27.6713 35 27.6713C28.1047 27.6713 21.4163 29.1554 16.6493 31.7431C13.1578 33.6387 10.937 35.9982 10.5376 38.1839Z" fill="#FDCB82"/>
<path d="M58.2937 35.7122C57.0739 36.741 55.5422 37.7305 53.7428 38.6303C47.7005 41.6514 39.2223 43.3841 30.4821 43.3841C25.4815 43.3841 20.5674 42.8159 16.1455 41.7648C21.2272 44.0394 28.0157 45.3317 35.0001 45.3317C42.4864 45.3317 49.7482 43.8476 54.9236 41.2599C56.7986 40.3224 58.3349 39.2714 59.4627 38.184C59.3146 37.373 58.9152 36.5382 58.2937 35.7122Z" fill="#FCB143"/>
<path d="M31.8895 35.5772C31.4908 35.5772 31.1104 35.3467 30.9381 34.959C30.7051 34.4348 30.9403 33.8211 31.4635 33.5866C31.7313 33.4648 32.4926 33.0295 32.8076 32.4784C33.0926 31.9795 33.7285 31.806 34.2274 32.091C34.7264 32.3761 34.8998 33.0117 34.6147 33.5108C33.9054 34.7523 32.4728 35.4157 32.3118 35.4873C32.1743 35.5484 32.0306 35.5772 31.8895 35.5772Z" fill="#7FD061"/>
<path d="M32.3371 35.5203C31.9201 37.8835 29.0593 39.0243 25.1889 39.0243C21.3185 39.0243 17.4595 37.7601 18.321 35.5203C19.0218 33.6983 22.066 34.0456 25.7496 32.8573C30.0945 31.4557 32.7575 33.1376 32.3371 35.5203Z" fill="#FC8086"/>
<path d="M30.9284 32.8199C30.9733 33.0978 30.9709 33.392 30.9169 33.6982C30.4999 36.0613 27.6391 37.2023 23.7687 37.2023C21.6514 37.2023 19.5395 36.8231 18.1999 36.1137C18.1706 37.982 21.6746 39.0245 25.1887 39.0245C29.0592 39.0245 31.9199 37.8835 32.3369 35.5205C32.541 34.3638 32.017 33.3737 30.9284 32.8199Z" fill="#FB636F"/>
<path d="M41.7276 35.8006C43.2758 35.8006 44.5309 34.9849 44.5309 33.9786C44.5309 32.9723 43.2758 32.1565 41.7276 32.1565C40.1794 32.1565 38.9243 32.9723 38.9243 33.9786C38.9243 34.9849 40.1794 35.8006 41.7276 35.8006Z" fill="#7FD061"/>
<path d="M50.5582 38.4636C52.1064 38.4636 53.3615 37.6479 53.3615 36.6416C53.3615 35.6353 52.1064 34.8195 50.5582 34.8195C49.01 34.8195 47.7549 35.6353 47.7549 36.6416C47.7549 37.6479 49.01 38.4636 50.5582 38.4636Z" fill="#7FD061"/>
<path d="M37.3829 41.8276C38.9311 41.8276 40.1862 41.0118 40.1862 40.0056C40.1862 38.9993 38.9311 38.1835 37.3829 38.1835C35.8347 38.1835 34.5796 38.9993 34.5796 40.0056C34.5796 41.0118 35.8347 41.8276 37.3829 41.8276Z" fill="#7FD061"/>
<path d="M35.5607 16.0974C34.986 16.0974 34.5202 15.6316 34.5202 15.0568C34.5202 14.4853 34.3709 14.252 34.1237 13.8656C33.8178 13.3875 33.3989 12.733 33.3989 11.5523C33.3989 10.3719 33.8178 9.71728 34.1237 9.23918C34.371 8.85281 34.5202 8.61957 34.5202 8.04795C34.5202 7.4766 34.3709 7.24336 34.1237 6.85699C33.8178 6.37902 33.3989 5.72455 33.3989 4.54398C33.3989 3.36369 33.8178 2.70922 34.1237 2.23125C34.3709 1.84488 34.5202 1.61178 34.5202 1.04029C34.5202 0.465526 34.9861 -0.000274658 35.5607 -0.000274658C36.1355 -0.000274658 36.6014 0.465526 36.6014 1.04029C36.6014 2.22072 36.1825 2.87519 35.8767 3.35316C35.6295 3.73953 35.4802 3.9725 35.4802 4.54398C35.4802 5.11547 35.6295 5.34871 35.8767 5.73508C36.1825 6.21305 36.6014 6.86738 36.6014 8.04795C36.6014 9.22851 36.1825 9.88299 35.8767 10.3611C35.6294 10.7475 35.4802 10.9806 35.4802 11.5523C35.4802 12.1241 35.6295 12.3573 35.8767 12.7438C36.1825 13.2218 36.6014 13.8763 36.6014 15.0568C36.6013 15.6316 36.1354 16.0974 35.5607 16.0974Z" fill="#FDCB82"/>
<path d="M43.2698 16.0974C42.6951 16.0974 42.2293 15.6316 42.2293 15.0568C42.2293 14.4854 42.08 14.252 41.8328 13.8656C41.527 13.3875 41.108 12.733 41.108 11.5523C41.108 10.3716 41.527 9.71729 41.8328 9.23918C42.0801 8.85281 42.2293 8.61957 42.2293 8.04795C42.2293 7.4766 42.08 7.24336 41.8328 6.85699C41.527 6.37902 41.1079 5.72455 41.1079 4.54398C41.1079 3.96922 41.5738 3.50342 42.1485 3.50342C42.7232 3.50342 43.1892 3.96922 43.1892 4.54398C43.1892 5.11547 43.3385 5.34871 43.5857 5.73508C43.8915 6.21305 44.3104 6.86738 44.3104 8.04795C44.3104 9.22852 43.8915 9.88299 43.5857 10.3611C43.3383 10.7475 43.1892 10.9807 43.1892 11.5523C43.1892 12.1239 43.3385 12.3572 43.5857 12.7437C43.8915 13.2218 44.3104 13.8763 44.3104 15.0568C44.3104 15.6316 43.8445 16.0974 43.2698 16.0974Z" fill="#FDCB82"/>
<path d="M27.7117 16.0974C27.137 16.0974 26.6712 15.6316 26.6712 15.0568C26.6712 14.4854 26.5219 14.252 26.2747 13.8656C25.9688 13.3875 25.5499 12.733 25.5499 11.5523C25.5499 10.3716 25.9688 9.71729 26.2747 9.23918C26.522 8.85281 26.6712 8.61957 26.6712 8.04795C26.6712 7.4766 26.5219 7.24336 26.2747 6.85699C25.9688 6.37902 25.5498 5.72455 25.5498 4.54398C25.5498 3.96922 26.0157 3.50342 26.5905 3.50342C27.1653 3.50342 27.6311 3.96922 27.6311 4.54398C27.6311 5.11547 27.7804 5.34871 28.0276 5.73508C28.3334 6.21305 28.7523 6.86738 28.7523 8.04795C28.7523 9.22852 28.3334 9.88299 28.0276 10.3611C27.7802 10.7475 27.6311 10.9807 27.6311 11.5523C27.6311 12.1239 27.7804 12.3572 28.0276 12.7437C28.3334 13.2218 28.7523 13.8763 28.7523 15.0568C28.7523 15.6316 28.2864 16.0974 27.7117 16.0974Z" fill="#FDCB82"/>
</g>
<defs>
<clipPath id="clip0_103_232">
<rect width="70" height="70" fill="white"/>
</clipPath>
</defs>
</svg>
