<svg width="70" height="70" viewBox="0 0 70 70" fill="none" xmlns="http://www.w3.org/2000/svg">
<g clip-path="url(#clip0_104_297)">
<path d="M70 35C70 54.3302 54.3302 70 35 70C33.9933 70 32.9973 69.9551 32.0119 69.8718C30.5684 52.9369 17.0685 39.4439 0.13031 38.0116C0.045929 37.0187 0 36.0147 0 35C0 15.6698 15.6698 0 35 0C54.3302 0 70 15.6698 70 35Z" fill="#509C49"/>
<path d="M62.5108 19.7174L52.0518 30.1769L46.8811 35.3471L39.7471 42.4816L19.0551 63.1737C18.3512 63.8776 17.5554 64.4324 16.7068 64.8431C12.0082 61.9566 8.04332 57.9917 5.15674 53.2931C5.56743 52.445 6.12231 51.6487 6.8262 50.9448L39.823 17.9481L50.2825 7.48909C53.6593 4.11224 59.1339 4.11224 62.5108 7.48909C65.8876 10.8659 65.8876 16.3406 62.5108 19.7174Z" fill="#C92C2C"/>
<path d="M62.5107 19.7174L52.0517 30.1769L19.055 63.1737C18.3511 63.877 17.5564 64.4335 16.7089 64.8437C13.3667 62.7913 10.3958 60.1936 7.92041 57.1741C8.33911 56.0312 9.00562 54.9588 9.92259 54.0413L42.9193 21.0445H42.9199L53.3789 10.5855C56.2206 7.74383 60.5481 7.29415 63.8608 9.23545C65.8021 12.5482 65.353 16.8757 62.5107 19.7174Z" fill="#E84444"/>
<path d="M53.2494 18.3625C53.2056 19.209 52.4841 19.8595 51.6376 19.8157C50.5167 19.758 49.4955 20.1297 48.7623 20.8635C48.0285 21.5973 47.6562 22.6184 47.7145 23.7389C47.8181 25.7389 47.1281 27.5873 45.7716 28.9433C44.485 30.2303 42.7547 30.9171 40.8721 30.8952C40.7632 30.9139 40.6515 30.9203 40.5389 30.9145C39.4179 30.8568 38.3968 31.2285 37.6635 31.9623C36.9297 32.6961 36.5575 33.7172 36.6157 34.8377C36.7187 36.8377 36.0293 38.6861 34.6733 40.042C33.3168 41.398 31.469 42.088 29.4689 41.9844C28.3479 41.9267 27.3268 42.2984 26.5935 43.0322C25.8597 43.766 25.4875 44.7871 25.5457 45.9076C25.6493 47.9076 24.9593 49.756 23.6034 51.112C22.3163 52.3985 20.5865 53.0859 18.7044 53.064C18.2313 53.1435 17.7287 53.0004 17.364 52.6357C16.7647 52.0364 16.7647 51.065 17.364 50.4652L17.3928 50.4364C17.7004 50.1293 18.1234 49.967 18.5576 49.9894C19.678 50.0471 20.6992 49.6754 21.4329 48.9416C22.1662 48.2078 22.5384 47.1867 22.4808 46.0662C22.3772 44.0662 23.0672 42.2178 24.4231 40.8618C25.7791 39.5053 27.6275 38.8158 29.6275 38.9189C30.748 38.9771 31.7691 38.6049 32.5029 37.8716C33.2362 37.1378 33.6084 36.1167 33.5507 34.9963C33.4471 32.9962 34.1371 31.1478 35.4931 29.7919C36.7796 28.5048 38.51 27.818 40.3925 27.8394C40.5015 27.8212 40.6136 27.8143 40.7263 27.8201C41.8468 27.8783 42.8679 27.5061 43.6017 26.7728C44.3349 26.0391 44.7072 25.0179 44.649 23.8969C44.5459 21.8974 45.2359 20.0491 46.5919 18.6931C47.9478 17.3371 49.7962 16.6471 51.7963 16.7507C52.6422 16.7945 53.2932 17.516 53.2494 18.3625Z" fill="#FCF498"/>
<path d="M47.8162 11.5495L5.50923 53.857C2.52438 49.199 0.615662 43.7869 0.126465 37.9704L30.415 7.68243C35.2205 2.87698 43.0113 2.87698 47.8162 7.68243C48.8843 8.75001 48.8843 10.4814 47.8162 11.5495ZM62.3175 22.1837C61.2499 21.1156 59.5185 21.1156 58.4509 22.1837L16.1429 64.4907C20.8009 67.4755 26.213 69.3842 32.0295 69.8734L62.3175 39.5849C67.1229 34.7794 67.1229 26.9886 62.3175 22.1837Z" fill="#FBC56D"/>
<path d="M62.3174 39.5849L32.0294 69.8734C28.2109 69.5525 24.5675 68.6189 21.1971 67.1711L62.3174 26.0503C62.3238 26.0444 62.3297 26.038 62.3361 26.0321C63.2344 25.1504 64.7634 25.5162 65.1906 26.7002C66.7592 31.0474 65.8016 36.1007 62.3174 39.5849ZM48.5964 9.29794C43.9704 6.92512 38.1561 7.67494 34.282 11.5495L3.34569 42.4854C2.59053 43.241 1.955 44.071 1.4375 44.9506C2.37904 48.1314 3.75798 51.1243 5.50862 53.857L47.8161 11.5495C48.4314 10.9343 48.6898 10.0996 48.5964 9.29794Z" fill="#FFDF8E"/>
</g>
<defs>
<clipPath id="clip0_104_297">
<rect width="70" height="70" fill="white"/>
</clipPath>
</defs>
</svg>
