<svg width="30" height="30" viewBox="0 0 30 30" fill="none" xmlns="http://www.w3.org/2000/svg">
<path d="M22.2772 5.11484C22.2711 5.08632 22.2621 5.05846 22.2505 5.03168L22.2357 5.00197C22.2286 4.98668 22.2206 4.97181 22.2119 4.95742V4.9396C22.178 4.89429 22.1356 4.85597 22.0871 4.82672L22.0248 4.79405L12.2228 0.784151C12.1547 0.751403 12.0794 0.736516 12.0039 0.74089C11.9285 0.745263 11.8554 0.768753 11.7915 0.809151C11.7277 0.849549 11.6751 0.905527 11.6388 0.97182C11.6026 1.03811 11.5838 1.11254 11.5842 1.18811V4.75247H8.16832C8.05016 4.75247 7.93683 4.79941 7.85328 4.88296C7.76972 4.96652 7.72278 5.07985 7.72278 5.19801V27.4752C7.72278 27.5934 7.76972 27.7067 7.85328 27.7903C7.93683 27.8738 8.05016 27.9208 8.16832 27.9208H21.8317C21.9499 27.9208 22.0632 27.8738 22.1467 27.7903C22.2303 27.7067 22.2772 27.5934 22.2772 27.4752V5.19801C22.2798 5.17035 22.2798 5.1425 22.2772 5.11484ZM12.4753 1.84752L19.5654 4.75247H12.4753V1.84752ZM21.3861 27.0297H8.61387V5.64356H21.3861V27.0297Z" fill="white"/>
<path d="M11.5604 10.2475C11.5618 11.0865 11.8651 11.8969 12.4148 12.5307C12.9646 13.1644 13.7241 13.5791 14.5545 13.699V15.7426H13.0693C12.9511 15.7426 12.8378 15.7895 12.7543 15.8731C12.6707 15.9566 12.6238 16.0699 12.6238 16.1881C12.6238 16.3063 12.6707 16.4196 12.7543 16.5032C12.8378 16.5867 12.9511 16.6337 13.0693 16.6337H16.9307C17.0489 16.6337 17.1622 16.5867 17.2457 16.5032C17.3293 16.4196 17.3762 16.3063 17.3762 16.1881C17.3762 16.0699 17.3293 15.9566 17.2457 15.8731C17.1622 15.7895 17.0489 15.7426 16.9307 15.7426H15.4455V13.7139C16.2968 13.6162 17.0824 13.2091 17.6531 12.57C18.2238 11.9309 18.5396 11.1043 18.5406 10.2475C18.5406 10.1294 18.4937 10.016 18.4101 9.93247C18.3265 9.84891 18.2132 9.80197 18.0951 9.80197H12.0059C11.8878 9.80197 11.7744 9.84891 11.6909 9.93247C11.6073 10.016 11.5604 10.1294 11.5604 10.2475ZM17.6139 10.6931C17.5088 11.2959 17.1944 11.8423 16.726 12.2361C16.2576 12.6298 15.6654 12.8457 15.0535 12.8457C14.4416 12.8457 13.8493 12.6298 13.3809 12.2361C12.9126 11.8423 12.5982 11.2959 12.4931 10.6931H17.6139Z" fill="white"/>
<path d="M10.6931 20.3465C10.6931 20.4647 10.74 20.578 10.8236 20.6616C10.9071 20.7451 11.0204 20.7921 11.1386 20.7921H18.8614C18.9796 20.7921 19.0929 20.7451 19.1764 20.6616C19.26 20.578 19.3069 20.4647 19.3069 20.3465C19.3069 20.2284 19.26 20.1151 19.1764 20.0315C19.0929 19.9479 18.9796 19.901 18.8614 19.901H11.1386C11.0204 19.901 10.9071 19.9479 10.8236 20.0315C10.74 20.1151 10.6931 20.2284 10.6931 20.3465Z" fill="white"/>
<path d="M16.9812 22.2772H13.1198C13.0016 22.2772 12.8883 22.3242 12.8048 22.4077C12.7212 22.4913 12.6743 22.6046 12.6743 22.7228C12.6743 22.8409 12.7212 22.9543 12.8048 23.0378C12.8883 23.1214 13.0016 23.1683 13.1198 23.1683H16.9812C17.0994 23.1683 17.2127 23.1214 17.2962 23.0378C17.3798 22.9543 17.4267 22.8409 17.4267 22.7228C17.4267 22.6046 17.3798 22.4913 17.2962 22.4077C17.2127 22.3242 17.0994 22.2772 16.9812 22.2772V22.2772Z" fill="white"/>
</svg>
