<svg width="29" height="29" viewBox="0 0 29 29" fill="none" xmlns="http://www.w3.org/2000/svg">
<path d="M4.8 7.2H0V25.8C0 27.4542 1.3458 28.8 3 28.8H25.8C27.4542 28.8 28.8 27.4542 28.8 25.8V0H4.8V7.2ZM1.2 25.8V8.4H4.8V25.8C4.8 26.7924 3.9924 27.6 3 27.6C2.0076 27.6 1.2 26.7924 1.2 25.8ZM6 1.2H27.6V25.8C27.6 26.7924 26.7924 27.6 25.8 27.6H5.3988C5.4168 27.5766 5.4294 27.5496 5.4462 27.5256C5.4804 27.477 5.5104 27.426 5.5416 27.375C5.6052 27.273 5.6628 27.168 5.7138 27.0582C5.7408 27.0006 5.7666 26.9424 5.7894 26.883C5.8344 26.7666 5.8704 26.6472 5.901 26.5242C5.9148 26.4678 5.9322 26.4138 5.943 26.3562C5.9778 26.1756 6 25.9908 6 25.8V7.2V1.2Z" fill="white"/>
<path d="M25.2 4.20001H8.39999V5.40001H25.2V4.20001Z" fill="white"/>
<path d="M22.8 7.20001H10.8V8.40001H22.8V7.20001Z" fill="white"/>
<path d="M25.2 12H18V13.2H25.2V12Z" fill="white"/>
<path d="M25.2 15H18V16.2H25.2V15Z" fill="white"/>
<path d="M15.6 12H8.39999V19.2H15.6V12ZM14.4 18H9.59999V13.2H14.4V18Z" fill="white"/>
<path d="M25.2 18H18V19.2H25.2V18Z" fill="white"/>
<path d="M15.6 21H8.39999V22.2H15.6V21Z" fill="white"/>
<path d="M25.2 21H18V22.2H25.2V21Z" fill="white"/>
<path d="M15.6 24H8.39999V25.2H15.6V24Z" fill="white"/>
<path d="M25.2 24H18V25.2H25.2V24Z" fill="white"/>
</svg>
