<svg width="70" height="70" viewBox="0 0 70 70" fill="none" xmlns="http://www.w3.org/2000/svg">
<g clip-path="url(#clip0_102_171)">
<path d="M35 68.9062C53.7259 68.9062 68.9062 53.7259 68.9062 35C68.9062 16.2741 53.7259 1.09375 35 1.09375C16.2741 1.09375 1.09375 16.2741 1.09375 35C1.09375 53.7259 16.2741 68.9062 35 68.9062Z" fill="#D6E4E8"/>
<path d="M35 42.6562C48.2894 42.6562 59.0625 34.3315 59.0625 24.0625C59.0625 13.7935 48.2894 5.46875 35 5.46875C21.7106 5.46875 10.9375 13.7935 10.9375 24.0625C10.9375 34.3315 21.7106 42.6562 35 42.6562Z" fill="#F8C460"/>
<path d="M34.9994 39.375C46.441 39.375 55.7162 32.5194 55.7162 24.0625C55.7162 15.6056 46.441 8.75 34.9994 8.75C23.5579 8.75 14.2827 15.6056 14.2827 24.0625C14.2827 32.5194 23.5579 39.375 34.9994 39.375Z" fill="#FAAF42"/>
<path d="M34.9998 36.0938C43.9895 36.0938 51.277 30.7072 51.277 24.0625C51.277 17.4178 43.9895 12.0312 34.9998 12.0312C26.0102 12.0312 18.7227 17.4178 18.7227 24.0625C18.7227 30.7072 26.0102 36.0938 34.9998 36.0938Z" fill="#F8C460"/>
<path d="M44.2862 59.6055C51.5464 52.3453 49.843 38.8708 40.4816 29.5094C31.1202 20.148 17.6457 18.4446 10.3855 25.7048C3.12531 32.965 4.82866 46.4395 14.1901 55.8009C23.5515 65.1623 37.026 66.8657 44.2862 59.6055Z" fill="#F8C460"/>
<path d="M41.9827 57.3019C47.9617 51.3229 46.251 39.9184 38.1619 31.8292C30.0727 23.7401 18.6682 22.0294 12.6892 28.0084C6.71022 33.9874 8.42084 45.3919 16.51 53.4811C24.5992 61.5703 36.0037 63.2809 41.9827 57.3019Z" fill="#FAAF42"/>
<path d="M38.8438 54.1631C43.5416 49.4653 42.1976 40.5047 35.8419 34.1491C29.4863 27.7934 20.5257 26.4494 15.8279 31.1472C11.1301 35.845 12.4741 44.8056 18.8298 51.1612C25.1854 57.5169 34.146 58.8609 38.8438 54.1631Z" fill="#F8C460"/>
<path d="M55.7927 55.802C65.1541 46.4406 66.8574 32.9661 59.5972 25.7059C52.337 18.4457 38.8625 20.1491 29.5011 29.5105C20.1397 38.8719 18.4364 52.3464 25.6966 59.6066C32.9568 66.8668 46.4313 65.1634 55.7927 55.802Z" fill="#F8C460"/>
<path d="M53.4734 53.4822C61.5626 45.393 63.2732 33.9885 57.2942 28.0095C51.3152 22.0305 39.9107 23.7412 31.8215 31.8303C23.7324 39.9195 22.0217 51.324 28.0007 57.303C33.9797 63.282 45.3842 61.5714 53.4734 53.4822Z" fill="#FAAF42"/>
<path d="M51.1535 51.1623C57.5091 44.8067 58.8531 35.8461 54.1553 31.1483C49.4576 26.4505 40.497 27.7945 34.1413 34.1502C27.7856 40.5058 26.4416 49.4664 31.1394 54.1642C35.8372 58.862 44.7978 57.518 51.1535 51.1623Z" fill="#F8C460"/>
<path d="M53.4325 41.8677C53.8521 40.6452 54.4223 39.4798 55.13 38.3983C55.8639 37.3379 56.3817 36.1432 56.6538 34.8827C56.9258 33.6221 56.9469 32.3203 56.7157 31.0515C56.4845 29.7828 56.0057 28.5721 55.3065 27.4885C54.6072 26.4049 53.7014 25.4697 52.6407 24.7363C51.7923 24.1729 51.0294 23.4903 50.3755 22.7095C49.0297 21.035 47.4197 19.5912 45.609 18.4352C44.5858 17.8247 43.6855 17.0287 42.9544 16.088C42.0536 14.8458 40.8743 13.832 39.5111 13.1276C38.1479 12.4232 36.6387 12.0479 35.1043 12.0317C33.57 12.0156 32.0532 12.359 30.6754 13.0345C29.2977 13.71 28.0973 14.6988 27.1705 15.9217C26.3483 16.9556 25.3551 17.8408 24.2338 18.5391C21.3653 20.4112 19.0336 22.9978 17.4679 26.0444C17.0264 26.8523 16.4717 27.593 15.8207 28.2439C14.1205 30.0357 13.1583 32.4028 13.1263 34.8727C13.0943 37.3426 13.9947 39.7337 15.6479 41.5691C16.5423 42.6023 17.3285 43.7245 17.9939 44.9181C20.0784 48.4852 23.2284 51.3092 27.001 52.9933C28.3538 53.6429 29.6003 54.4941 30.6979 55.5177C31.7956 56.484 33.0951 57.1931 34.5018 57.5934C35.9084 57.9936 37.3866 58.0749 38.8286 57.8312C40.2706 57.5876 41.6401 57.0251 42.8371 56.185C44.0341 55.3448 45.0286 54.248 45.7479 52.9747C46.4422 51.6552 47.3345 50.4498 48.3936 49.4003C50.6366 47.3158 52.362 44.7365 53.4325 41.8677Z" fill="#F98658"/>
<path d="M34.3585 23.4216C33.0563 24.493 31.4034 25.044 29.7188 24.9681C29.643 23.2835 30.194 21.6306 31.2654 20.3284C32.5675 19.257 34.2205 18.706 35.9051 18.7819C35.9809 20.4665 35.4299 22.1194 34.3585 23.4216Z" fill="#ED744A"/>
<path d="M39.695 55.008C37.3048 55.0111 34.9962 54.1392 33.2047 52.5569C32.1072 51.5333 30.8607 50.6821 29.5079 50.0325C25.7352 48.3484 22.5853 45.5244 20.5008 41.9573C19.8356 40.7641 19.0498 39.6423 18.1558 38.6094C16.5027 36.774 15.6023 34.3829 15.6343 31.913C15.6663 29.4431 16.6284 27.076 18.3286 25.2842C18.9797 24.6332 19.5344 23.8926 19.9758 23.0847C20.3632 22.3279 20.7994 21.5972 21.2818 20.8972C19.7378 22.3906 18.4494 24.1272 17.4679 26.0378C17.0264 26.8457 16.4717 27.5864 15.8207 28.2373C14.1205 30.0292 13.1583 32.3962 13.1263 34.8661C13.0943 37.336 13.9947 39.7272 15.6479 41.5625C16.5423 42.5957 17.3285 43.7179 17.9939 44.9115C20.0784 48.4786 23.2283 51.3027 27.001 52.9867C28.354 53.6361 29.6005 54.4873 30.6979 55.5111C31.7956 56.4774 33.0951 57.1865 34.5018 57.5868C35.9084 57.987 37.3866 58.0683 38.8286 57.8246C40.2706 57.581 41.6401 57.0186 42.8371 56.1784C44.0341 55.3382 45.0286 54.2415 45.7478 52.9681C45.7675 52.9342 45.7883 52.9003 45.808 52.8653C44.073 54.2533 41.917 55.009 39.695 55.008Z" fill="#ED744A"/>
<path d="M44.3904 34.3591C43.319 33.0569 42.768 31.404 42.8438 29.7194C44.5284 29.6435 46.1813 30.1945 47.4835 31.2659C48.5549 32.5681 49.1059 34.221 49.0301 35.9056C47.3455 35.9815 45.6925 35.4305 44.3904 34.3591Z" fill="#ED744A"/>
<path d="M36.546 21.2341C35.2438 22.3055 33.5909 22.8565 31.9063 22.7806C31.8305 21.096 32.3815 19.4431 33.4529 18.1409C34.755 17.0695 36.408 16.5185 38.0926 16.5944C38.1684 18.279 37.6174 19.9319 36.546 21.2341Z" fill="#F96464"/>
<path d="M19.6875 36.0938C18.0089 35.9305 16.4503 35.1512 15.3125 33.9062C16.4503 32.6613 18.0089 31.882 19.6875 31.7188C21.3661 31.882 22.9247 32.6613 24.0625 33.9062C22.9247 35.1512 21.3661 35.9305 19.6875 36.0938Z" fill="#ED744A"/>
<path d="M21.875 35C20.1964 34.8367 18.6378 34.0574 17.5 32.8125C18.6378 31.5676 20.1964 30.7883 21.875 30.625C23.5536 30.7883 25.1122 31.5676 26.25 32.8125C25.1122 34.0574 23.5536 34.8367 21.875 35Z" fill="#F96464"/>
<path d="M45.4841 33.2653C44.4127 31.9631 43.8617 30.3102 43.9376 28.6256C45.6222 28.5498 47.2751 29.1008 48.5773 30.1722C49.6487 31.4743 50.1997 33.1273 50.1238 34.8119C48.4392 34.8877 46.7863 34.3367 45.4841 33.2653Z" fill="#F96464"/>
<path d="M33.0004 41.3744C31.9283 40.0725 31.3769 38.4195 31.4527 36.7347C33.1376 36.6588 34.7909 37.2098 36.0935 38.2812C37.165 39.5838 37.716 41.2371 37.64 42.922C35.9553 42.9979 34.3022 42.4465 33.0004 41.3744Z" fill="#ED744A"/>
<path d="M34.5466 39.8278C33.4752 38.5256 32.9242 36.8727 33.0001 35.1881C34.6847 35.1123 36.3376 35.6633 37.6398 36.7347C38.7112 38.0368 39.2622 39.6898 39.1863 41.3744C37.5017 41.4502 35.8488 40.8992 34.5466 39.8278Z" fill="#F96464"/>
<path d="M35 53.5938C33.3214 53.4305 31.7628 52.6512 30.625 51.4062C31.7628 50.1613 33.3214 49.382 35 49.2188C36.6786 49.382 38.2372 50.1613 39.375 51.4062C38.2372 52.6512 36.6786 53.4305 35 53.5938Z" fill="#ED744A"/>
<path d="M36.0937 52.5C34.4151 52.3367 32.8565 51.5574 31.7188 50.3125C32.8565 49.0676 34.4151 48.2883 36.0937 48.125C37.7723 48.2883 39.331 49.0676 40.4687 50.3125C39.331 51.5574 37.7723 52.3367 36.0937 52.5Z" fill="#F96464"/>
<path d="M22.6221 40.8069L24.9423 38.4867L28.7706 42.315L26.4504 44.6352L22.6221 40.8069Z" fill="#6DBC53"/>
<path d="M22.623 26.5893L24.9432 24.2691L28.7716 28.0974L26.4514 30.4176L22.623 26.5893Z" fill="#ED744A"/>
<path d="M23.7168 25.4966L26.037 23.1764L29.8653 27.0047L27.5451 29.3249L23.7168 25.4966Z" fill="#6DBC53"/>
<path d="M45.1836 45.1926L42.8634 42.8724L45.5981 40.1377L47.9183 42.4579L45.1836 45.1926Z" fill="#ED744A"/>
<path d="M46.2773 44.0989L43.9571 41.7787L46.6919 39.0439L49.0121 41.3641L46.2773 44.0989Z" fill="#6DBC53"/>
<path d="M37.5288 29.8779L35.2086 27.5577L37.9434 24.823L40.2636 27.1432L37.5288 29.8779Z" fill="#ED744A"/>
<path d="M38.6226 28.7842L36.3024 26.464L39.0371 23.7292L41.3573 26.0494L38.6226 28.7842Z" fill="#6DBC53"/>
<path d="M45.1644 24.8358C45.3707 25.035 45.647 25.1453 45.9338 25.1428C46.2206 25.1403 46.4949 25.0252 46.6977 24.8225C46.9005 24.6197 47.0155 24.3453 47.018 24.0586C47.0205 23.7718 46.9102 23.4955 46.711 23.2892L45.6173 22.1955C45.411 21.9962 45.1347 21.886 44.8479 21.8885C44.5611 21.891 44.2868 22.006 44.084 22.2088C43.8812 22.4116 43.7662 22.6859 43.7637 22.9727C43.7612 23.2595 43.8715 23.5357 44.0707 23.742L45.1644 24.8358Z" fill="#F8C460"/>
<path d="M32.8125 30.625H31.7187C31.4287 30.625 31.1505 30.7402 30.9454 30.9454C30.7402 31.1505 30.625 31.4287 30.625 31.7188C30.625 32.0088 30.7402 32.287 30.9454 32.4921C31.1505 32.6973 31.4287 32.8125 31.7187 32.8125H32.8125C33.1026 32.8125 33.3808 32.6973 33.5859 32.4921C33.791 32.287 33.9062 32.0088 33.9062 31.7188C33.9062 31.4287 33.791 31.1505 33.5859 30.9454C33.3808 30.7402 33.1026 30.625 32.8125 30.625Z" fill="#F8C460"/>
<path d="M40.789 33.133C40.5839 33.3381 40.4688 33.6162 40.4688 33.9062C40.4688 34.1963 40.5839 34.4744 40.789 34.6795L41.8827 35.7733C42.089 35.9725 42.3653 36.0828 42.6521 36.0803C42.9389 36.0778 43.2132 35.9627 43.416 35.76C43.6188 35.5572 43.7338 35.2828 43.7363 34.9961C43.7388 34.7093 43.6285 34.433 43.4293 34.2267L42.3355 33.133C42.1304 32.9279 41.8523 32.8127 41.5623 32.8127C41.2722 32.8127 40.9941 32.9279 40.789 33.133Z" fill="#F8C460"/>
<path d="M31.398 46.7108L32.4918 45.617C32.691 45.4108 32.8013 45.1345 32.7988 44.8477C32.7963 44.5609 32.6813 44.2866 32.4785 44.0838C32.2757 43.881 32.0014 43.766 31.7146 43.7635C31.4278 43.761 31.1515 43.8712 30.9452 44.0705L29.8515 45.1642C29.747 45.2651 29.6637 45.3858 29.6064 45.5192C29.5491 45.6527 29.5189 45.7962 29.5176 45.9414C29.5164 46.0867 29.544 46.2307 29.599 46.3651C29.654 46.4995 29.7352 46.6216 29.8379 46.7243C29.9406 46.827 30.0627 46.9082 30.1972 46.9632C30.3316 47.0182 30.4756 47.0459 30.6208 47.0446C30.7661 47.0434 30.9096 47.0132 31.043 46.9559C31.1765 46.8986 31.2972 46.8152 31.398 46.7108Z" fill="#F8C460"/>
<path d="M43.4298 45.1642C43.2235 44.965 42.9472 44.8547 42.6604 44.8572C42.3736 44.8597 42.0993 44.9748 41.8965 45.1775C41.6937 45.3803 41.5787 45.6547 41.5762 45.9414C41.5737 46.2282 41.684 46.5045 41.8832 46.7108L42.9769 47.8045C43.1832 48.0038 43.4595 48.114 43.7463 48.1115C44.0331 48.109 44.3074 47.994 44.5102 47.7912C44.713 47.5884 44.828 47.3141 44.8305 47.0273C44.833 46.7405 44.7227 46.4643 44.5235 46.258L43.4298 45.1642Z" fill="#F8C460"/>
<path d="M17.5 39.375H18.5938C18.8838 39.375 19.162 39.2598 19.3671 39.0546C19.5723 38.8495 19.6875 38.5713 19.6875 38.2812C19.6875 37.9912 19.5723 37.713 19.3671 37.5079C19.162 37.3027 18.8838 37.1875 18.5938 37.1875H17.5C17.2099 37.1875 16.9317 37.3027 16.7266 37.5079C16.5215 37.713 16.4062 37.9912 16.4062 38.2812C16.4062 38.5713 16.5215 38.8495 16.7266 39.0546C16.9317 39.2598 17.2099 39.375 17.5 39.375Z" fill="#F8C460"/>
<path d="M28.4375 20.7812C28.7276 20.7812 29.0058 20.666 29.2109 20.4609C29.416 20.2558 29.5312 19.9776 29.5312 19.6875V18.5938C29.5312 18.3037 29.416 18.0255 29.2109 17.8204C29.0058 17.6152 28.7276 17.5 28.4375 17.5C28.1474 17.5 27.8692 17.6152 27.6641 17.8204C27.459 18.0255 27.3438 18.3037 27.3438 18.5938V19.6875C27.3438 19.9776 27.459 20.2558 27.6641 20.4609C27.8692 20.666 28.1474 20.7812 28.4375 20.7812Z" fill="#F8C460"/>
<path d="M52.5 31.7188C52.7901 31.7188 53.0683 31.6035 53.2734 31.3984C53.4785 31.1933 53.5938 30.9151 53.5938 30.625V29.5312C53.5938 29.2412 53.4785 28.963 53.2734 28.7579C53.0683 28.5527 52.7901 28.4375 52.5 28.4375C52.2099 28.4375 51.9317 28.5527 51.7266 28.7579C51.5215 28.963 51.4062 29.2412 51.4062 29.5312V30.625C51.4062 30.9151 51.5215 31.1933 51.7266 31.3984C51.9317 31.6035 52.2099 31.7188 52.5 31.7188Z" fill="#F8C460"/>
</g>
<defs>
<clipPath id="clip0_102_171">
<rect width="70" height="70" fill="white"/>
</clipPath>
</defs>
</svg>
