<svg width="70" height="70" viewBox="0 0 70 70" fill="none" xmlns="http://www.w3.org/2000/svg">
<path d="M70 35C70 54.3302 54.3302 70 35 70C15.6703 70 0 54.3302 0 35C0 15.6698 15.6703 0 35 0C54.3302 0 70 15.6698 70 35Z" fill="#84DEEA"/>
<path d="M60.1562 17.0898C60.1562 19.7328 57.4016 21.8749 54.0039 21.8749C50.6062 21.8749 47.8516 19.7328 47.8516 17.0898C47.8516 15.0027 49.5696 13.2291 51.9654 12.5749C52.0103 11.5746 52.2004 10.5486 52.5529 9.54462C53.0458 8.14111 53.7919 6.95818 54.6827 6.05615C56.0371 6.979 57.3236 7.99318 58.5322 9.09174C57.9805 9.83461 57.5153 10.7051 57.1725 11.6819C57.0374 12.0664 56.9263 12.4547 56.8376 12.843C58.8088 13.6403 60.1562 15.2419 60.1562 17.0898Z" fill="#387232"/>
<path d="M55.1655 9.91321C55.2034 9.78984 55.2445 9.66754 55.2872 9.54471C55.5778 8.71692 55.958 7.9687 56.4024 7.30701C57.1362 7.87418 57.847 8.46858 58.5322 9.09129C57.9805 9.83417 57.5153 10.7047 57.1725 11.682C57.0374 12.0671 56.9284 12.4548 56.8397 12.8436C56.7677 12.8142 56.6945 12.7859 56.6208 12.7592C55.4587 12.3336 54.7986 11.0945 55.1655 9.91321ZM59.3242 14.6855C57.4443 12.1765 53.6498 12.2839 51.7865 14.8057C51.0319 15.8268 50.5859 17.0899 50.5859 18.4571C50.5859 19.5246 50.8583 20.5281 51.3363 21.4029C52.1432 21.7057 53.0479 21.875 54.0039 21.875C57.4016 21.875 60.1562 19.7329 60.1562 17.0899C60.1562 16.2135 59.8534 15.3921 59.3242 14.6855Z" fill="#509C49"/>
<path d="M63.2248 23.2406C63.0289 24.4449 62.8895 25.6572 62.8168 26.8748C61.5201 48.4892 43.3189 65.625 26.2259 65.625C15.4838 65.625 5.97548 58.8563 0.145709 48.463C-0.307706 47.6545 0.379092 46.6034 1.08084 47.0296C5.24382 49.5605 9.8976 50.9774 14.8104 50.9774C25.6064 50.9774 35.1569 44.1409 40.9781 33.6574C42.9622 30.085 43.963 26.0759 44.1675 21.9946C44.1713 21.9225 44.1761 21.8504 44.1825 21.7778C44.4276 18.9211 46.7465 16.6321 49.6059 16.4228C51.1701 16.308 52.6158 16.8062 53.7304 17.6997C54.7841 16.8548 56.1331 16.3635 57.5991 16.4089C60.5738 16.5018 63.0459 18.8527 63.2815 21.82C63.3204 22.307 63.2991 22.7829 63.2248 23.2406Z" fill="#E84444"/>
<path d="M0.145709 48.4631C-0.307706 47.6545 0.379092 46.6035 1.08084 47.0296C5.24382 49.5606 9.8976 50.9774 14.8104 50.9774C25.6064 50.9774 35.1569 44.1409 40.9781 33.6574C42.9622 30.0851 43.963 26.0759 44.1675 21.9946C44.1713 21.9225 44.1761 21.8504 44.1825 21.7778C44.4276 18.9211 46.7465 16.6322 49.6059 16.4228C51.0307 16.3181 52.3557 16.7229 53.4233 17.4712C51.7699 18.6108 50.6296 20.4517 50.4491 22.5554C50.4422 22.6403 50.4363 22.7252 50.432 22.8096C50.1922 27.5958 49.0184 32.2982 46.6915 36.4879C39.8646 48.7824 28.6638 56.8008 16.0019 56.8008C11.8677 56.8008 7.89008 55.9447 4.1693 54.3649C2.68782 52.5678 1.33933 50.5918 0.145709 48.4631Z" fill="#C92C2C"/>
</svg>
