<svg width="30" height="30" viewBox="0 0 30 30" fill="none" xmlns="http://www.w3.org/2000/svg">
<g clip-path="url(#clip0_67_274)">
<path d="M29.5407 3.22452C29.1746 2.77497 28.625 2.52734 27.9931 2.52734C27.6522 2.52734 27.291 2.59871 26.9196 2.7394L1.52091 12.3626C0.170446 12.8744 -0.0113187 13.6447 0.000517681 14.0584C0.0122955 14.47 0.235604 15.2231 1.59491 15.6579L6.98134 17.6318L9.82014 24.13C10.1055 25.0287 10.7018 25.6592 11.4628 25.8637C11.6383 25.9109 11.8174 25.9341 11.9978 25.9341C12.6159 25.9341 13.2487 25.6619 13.7952 25.1486L16.1472 22.9389L21.8857 26.8888C22.4026 27.2707 22.9649 27.4724 23.5132 27.4723C24.6262 27.4723 25.5139 26.6576 25.7747 25.3967L29.9286 5.30631C30.0993 4.48064 29.9616 3.74133 29.5407 3.22452ZM8.76647 17.3269L16.0963 13.3962L10.9879 18.082C10.806 18.2489 10.7047 18.4839 10.7044 18.7288C10.7041 18.7378 10.7029 18.7466 10.7029 18.7557L10.6853 21.719L8.76647 17.3269ZM12.5917 23.8673C12.5375 23.9183 12.4831 23.963 12.4295 24.002L12.451 20.3948L14.6654 21.919L12.5917 23.8673ZM28.2071 4.95034L24.0533 25.0407C24.0114 25.2432 23.8748 25.7145 23.5131 25.7145C23.3442 25.7145 23.1347 25.6275 22.9231 25.4695C22.914 25.4627 22.9048 25.4562 22.8955 25.4498L16.569 21.0952C16.5681 21.0946 16.5672 21.094 16.5664 21.0935L12.9895 18.6314L22.4384 9.96416C22.7649 9.66468 22.8174 9.16902 22.5609 8.80771C22.3045 8.44641 21.8192 8.3325 21.4288 8.54186L7.5683 15.9748L2.18175 14.0008C2.17783 13.9994 2.1739 13.998 2.16991 13.9966L27.5425 4.38325C27.7563 4.30221 27.9055 4.28522 27.9931 4.28522C28.0365 4.28522 28.1414 4.29003 28.1776 4.33456C28.2241 4.39157 28.2825 4.58547 28.2071 4.95034Z" fill="#3EA9F7"/>
</g>
<defs>
<clipPath id="clip0_67_274">
<rect width="30" height="30" fill="white"/>
</clipPath>
</defs>
</svg>
