<svg width="30" height="30" viewBox="0 0 30 30" fill="none" xmlns="http://www.w3.org/2000/svg">
<path d="M15.4688 7.96909C11.5917 7.96909 8.4375 11.1233 8.4375 15.0002C8.4375 18.8772 11.5917 22.0314 15.4688 22.0314C19.3458 22.0314 22.5 18.8772 22.5 15.0002C22.5 11.1233 19.3458 7.96909 15.4688 7.96909ZM15.4688 21.0939C12.1087 21.0939 9.375 18.3602 9.375 15.0002C9.375 11.6403 12.1087 8.90657 15.4688 8.90657C18.8288 8.90657 21.5625 11.6403 21.5625 15.0002C21.5625 18.3602 18.8288 21.0939 15.4688 21.0939Z" fill="white"/>
<path d="M15.4688 4.6879C9.78234 4.6879 5.15625 9.31392 5.15625 15.0002C5.15625 20.6866 9.78234 25.3126 15.4688 25.3126C21.1552 25.3126 25.7812 20.6866 25.7812 15.0002C25.7812 9.31392 21.1552 4.6879 15.4688 4.6879ZM15.4688 24.3751C10.2994 24.3751 6.09375 20.1695 6.09375 15.0002C6.09375 9.83094 10.2994 5.62538 15.4688 5.62538C20.6381 5.62538 24.8438 9.83094 24.8438 15.0002C24.8438 20.1695 20.6381 24.3751 15.4688 24.3751Z" fill="white"/>
<path d="M29.5313 0.00100708C28.7649 0.00100708 28.1053 0.572873 27.9975 1.3313L26.2552 13.528C26.2345 13.6738 26.2833 13.8209 26.3869 13.925L27.1875 14.7289V28.5938C27.1875 29.3691 27.8184 30.0001 28.5938 30.0001C29.3691 30.0001 30 29.3691 30 28.5938V0.469281C30 0.210535 29.79 0.00100708 29.5313 0.00100708ZM29.0625 28.5943C29.0625 28.8526 28.852 29.0631 28.5938 29.0631C28.3355 29.0631 28.125 28.8526 28.125 28.5943V14.5353C28.125 14.4111 28.0758 14.2925 27.9881 14.2044L27.2156 13.4286L28.9247 1.46348C28.9416 1.3477 28.9903 1.24271 29.062 1.15786V28.5943H29.0625Z" fill="white"/>
<path d="M6.5625 6.92052V0.469215C6.5625 0.234375 6.38812 0.0351594 6.15516 0.00469108C5.92125 -0.0271834 5.70234 0.120002 5.64094 0.347342L4.52953 4.4765L3.74156 0.380623C3.69937 0.159845 3.50578 0.000472399 3.28125 0.000472399C3.05672 0.000472399 2.86313 0.159845 2.82094 0.380623L2.03297 4.4765L0.921094 0.346873C0.859688 0.119533 0.639375 -0.0271834 0.407344 0.00422234C0.174375 0.0351594 0 0.233906 0 0.469215V6.92099C0 7.74645 0.458437 8.488 1.19672 8.85736C1.61484 9.06596 1.875 9.48689 1.875 9.95469V28.5436C1.875 29.2542 2.37937 29.872 3.04828 29.9808C3.12516 29.9934 3.2025 29.9995 3.27891 29.9995C3.61219 29.9995 3.93609 29.8828 4.19203 29.6649C4.50703 29.3972 4.6875 29.0067 4.6875 28.5938V9.95469C4.6875 9.48689 4.94766 9.06596 5.36578 8.8569C6.10406 8.48753 6.5625 7.74598 6.5625 6.92052ZM4.94672 8.01832C4.20844 8.38769 3.75 9.12924 3.75 9.95469V28.5938C3.75 28.7316 3.69 28.8619 3.58453 28.951C3.47766 29.0414 3.34078 29.078 3.19875 29.056C2.98219 29.0203 2.8125 28.7953 2.8125 28.5436V9.95469C2.8125 9.12924 2.35406 8.38769 1.61578 8.01832C1.19766 7.80926 0.9375 7.38833 0.9375 6.92052V4.01338L1.65656 6.68474C1.71328 6.89568 1.90359 7.03349 2.12625 7.03161C2.34422 7.02364 2.52797 6.86615 2.56922 6.65146L3.28125 2.95121L3.99281 6.65146C4.03406 6.86615 4.21781 7.02318 4.43578 7.03161C4.65328 7.03489 4.84875 6.89568 4.90547 6.68474L5.625 4.01338V6.92099C5.625 7.38833 5.36484 7.80926 4.94672 8.01832Z" fill="white"/>
</svg>
