<svg width="70" height="70" viewBox="0 0 70 70" fill="none" xmlns="http://www.w3.org/2000/svg">
<path d="M40.1287 16.7075C38.5922 17.1358 37.0291 16.4213 36.3065 15.1054C34.6867 12.1221 30.2326 11.4161 27.7792 13.8183C26.5807 14.9633 24.8408 14.9809 23.6696 14.1734C20.9245 12.3315 16.7632 13.4791 15.4937 16.7599C14.933 18.2152 13.4349 19.0211 11.9134 18.7369C10.3673 18.4256 8.50076 19.24 7.5918 20.274L26.3719 39.0546C27.5746 39.154 28.7982 39.2303 30.0372 39.2837L46.9412 22.0972C47.1158 18.6734 43.4944 15.7532 40.1287 16.7075Z" fill="#00B04B"/>
<path d="M37.1062 21.5477C40.6972 25.1387 46.3683 25.3806 50.2397 22.2735C50.6947 21.9082 50.7262 21.2246 50.3134 20.8118L37.8421 8.34045C37.4293 7.92762 36.7457 7.95913 36.3804 8.41415C33.2738 12.2855 33.5157 17.9572 37.1062 21.5477Z" fill="#FF5368"/>
<path d="M37.8533 20.8011C34.421 17.3687 34.421 11.7841 37.8533 8.35169C36.9908 7.48972 35.5542 7.64727 34.8947 8.67319C32.1779 12.8976 32.666 18.6013 36.3596 22.2949C40.0526 25.9884 45.7563 26.4765 49.9813 23.7593C51.0067 23.0997 51.1642 21.6631 50.3022 20.8006C46.8704 24.233 41.2852 24.233 37.8533 20.8011Z" fill="#C5324F"/>
<path d="M42.0859 16.5681C43.186 17.6683 44.9698 17.6683 46.0699 16.5681L42.0859 12.5846C40.9857 13.6848 40.9857 15.468 42.0859 16.5681Z" fill="#FF7C8B"/>
<path d="M37.4366 13.7846C37.3693 14.3561 37.3751 14.935 37.4542 15.5048C37.5348 16.0827 38.0683 16.4859 38.6462 16.4052C38.8828 16.3721 39.09 16.2637 39.247 16.1067C39.4729 15.8803 39.5941 15.5545 39.5466 15.2132C39.4921 14.8223 39.4879 14.425 39.5349 14.0324C39.6032 13.4535 39.1888 12.928 38.6099 12.8596C38.0304 12.7913 37.5049 13.2052 37.4366 13.7846Z" fill="#FFCF5D"/>
<path d="M41.2833 18.2018C41.1289 18.0827 40.9805 17.9519 40.8411 17.813C40.7012 17.6731 40.5693 17.523 40.4491 17.3671C40.0934 16.9051 39.4301 16.8191 38.9676 17.1753C38.5057 17.531 38.4197 18.1949 38.7759 18.6568C38.9511 18.8843 39.1433 19.1033 39.3473 19.3068C39.5497 19.5092 39.7666 19.7004 39.9919 19.8745C40.4171 20.2029 41.0136 20.1565 41.3837 19.7858C41.4152 19.7543 41.4456 19.7201 41.4734 19.6838C41.8302 19.2219 41.7447 18.5586 41.2833 18.2018Z" fill="#FFCF5D"/>
<path d="M25.8164 36.4607C24.9272 35.8481 24.5865 34.7074 25.0271 33.7098C26.0172 31.4571 24.5331 28.8295 22.2745 28.3825C21.2999 28.2026 20.4518 27.3326 20.4256 26.1726C20.4 23.7693 17.8595 21.9146 15.5924 22.5891C14.5889 22.8828 13.4663 22.4625 12.921 21.49C11.7338 19.3516 8.51239 19.0045 6.91182 20.7856C6.15132 21.6539 4.9748 21.7511 3.84847 21.5033C1.56217 20.9837 -0.742291 23.0505 0.227558 25.2588C0.50687 25.9104 1.02811 26.4354 1.60703 26.7649C2.63028 27.3507 3.4789 28.1796 3.33951 29.362C3.19371 30.6277 3.61669 31.9356 4.51978 32.8809C5.31606 33.6868 5.96334 33.8844 6.46749 34.0932C6.11875 33.8924 5.80846 33.698 5.53716 33.5127C5.80846 33.698 6.11875 33.8924 6.46749 34.0932C6.66989 34.1771 6.84987 34.2636 7.00635 34.3912C8.17968 35.015 9.73538 35.6879 11.783 36.348C16.182 37.7665 21.5888 38.7208 27.4383 39.1358C27.276 38.0383 26.673 37.0332 25.8164 36.4607Z" fill="#4FE267"/>
<path d="M25.9584 19.2806C20.5131 19.2806 16.0991 23.6946 16.0991 29.1398C16.0991 31.0683 16.6545 32.866 17.6121 34.3853C22.2445 35.345 27.5344 35.8957 33.0549 35.98C34.7644 34.207 35.8176 31.7968 35.8176 29.1398C35.8171 23.6946 31.4031 19.2806 25.9584 19.2806Z" fill="#FF5368"/>
<path d="M27.0146 34.7736V23.506C27.0146 22.9223 26.5414 22.4497 25.9582 22.4497C25.3745 22.4497 24.9019 22.9223 24.9019 23.506V34.7736C24.9019 35.0721 25.0263 35.3413 25.2255 35.5336C25.6602 35.5773 26.0981 35.6179 26.5387 35.6553C26.825 35.4668 27.0146 35.1421 27.0146 34.7736Z" fill="#FF7C8B"/>
<path d="M28.7749 29.1398C28.7749 30.6955 27.514 31.9564 25.9583 31.9564C24.4026 31.9564 23.1411 30.6955 23.1411 29.1398C23.1411 27.5841 24.4026 26.3227 25.9583 26.3227C27.514 26.3227 28.7749 27.5841 28.7749 29.1398Z" fill="#FF7C8B"/>
<path d="M25.9586 18.2242C19.9397 18.2242 15.043 23.121 15.043 29.1398C15.043 30.9182 15.4734 32.5973 16.2312 34.0825C17.1664 34.2994 18.132 34.4986 19.1242 34.6796C17.8943 33.1656 17.1557 31.2376 17.1557 29.1398C17.1557 24.2858 21.1045 20.337 25.9586 20.337C30.8121 20.337 34.7614 24.2858 34.7614 29.1398C34.7614 31.8785 33.5037 34.3287 31.5357 35.9448C32.4992 35.9747 33.4701 35.9902 34.4474 35.9913C35.9636 34.1167 36.8742 31.7327 36.8742 29.1398C36.8736 23.121 31.9769 18.2242 25.9586 18.2242Z" fill="#C5324F"/>
<path d="M21.8218 23.8842C21.37 24.2404 20.9651 24.6538 20.618 25.1131C20.2661 25.5782 20.3585 26.241 20.8242 26.5924C21.0148 26.7366 21.238 26.806 21.4602 26.806C21.7796 26.806 22.0957 26.6613 22.3035 26.3868C22.5417 26.0717 22.8199 25.7876 23.1302 25.5435C23.5879 25.182 23.6669 24.5176 23.3054 24.0599C22.9438 23.6017 22.28 23.5232 21.8218 23.8842Z" fill="#FFCF5D"/>
<path d="M23.1262 32.733C22.8159 32.4884 22.5387 32.2043 22.3005 31.8887C21.9496 31.423 21.2874 31.33 20.8212 31.6814C20.3555 32.0323 20.2626 32.6945 20.614 33.1608C20.96 33.6201 21.3649 34.0345 21.8161 34.3907C22.01 34.544 22.2412 34.6182 22.4704 34.6182C22.7828 34.6182 23.0915 34.4804 23.3003 34.2166C23.6618 33.7589 23.5839 33.0946 23.1262 32.733Z" fill="#FFCF5D"/>
<path d="M21.4182 29.7273C21.3931 29.534 21.3808 29.3364 21.3808 29.1398C21.3808 28.9417 21.3936 28.7425 21.4187 28.5476C21.4935 27.9687 21.0855 27.4389 20.5065 27.3641C19.9287 27.2888 19.3984 27.6974 19.3236 28.2763C19.2868 28.5609 19.2681 28.8515 19.2681 29.1398C19.2681 29.4261 19.2862 29.7145 19.3225 29.9965C19.3909 30.5295 19.8454 30.9183 20.3688 30.9183C20.4136 30.9183 20.459 30.9156 20.5049 30.9097C21.0833 30.8355 21.4924 30.3057 21.4182 29.7273Z" fill="#FFCF5D"/>
<path d="M28.7902 25.5462C29.1005 25.7913 29.3776 26.0749 29.6158 26.3905C29.8231 26.6661 30.1397 26.8108 30.4602 26.8108C30.6813 26.8108 30.9045 26.7414 31.0952 26.5983C31.5609 26.2469 31.6538 25.5846 31.3024 25.1184C30.9563 24.6591 30.5515 24.2452 30.0997 23.8885C29.642 23.5269 28.9776 23.6049 28.6161 24.0626C28.2545 24.5203 28.3325 25.1846 28.7902 25.5462Z" fill="#FFCF5D"/>
<path d="M31.0913 31.6868C30.6261 31.3348 29.9639 31.4272 29.6119 31.8929C29.3737 32.208 29.096 32.4916 28.7857 32.7362C28.3275 33.0972 28.249 33.7616 28.61 34.2198C28.8183 34.4842 29.1281 34.622 29.4405 34.622C29.6696 34.622 29.8998 34.5477 30.0936 34.395C30.5455 34.0388 30.9508 33.6254 31.2974 33.1661C31.6494 32.701 31.557 32.0387 31.0913 31.6868Z" fill="#FFCF5D"/>
<path d="M32.5933 28.2827C32.5191 27.7043 31.9893 27.2958 31.4109 27.37C30.8325 27.4442 30.4234 27.9735 30.4977 28.5519C30.5228 28.7457 30.535 28.9433 30.535 29.1393C30.535 29.3375 30.5222 29.5367 30.4971 29.7321C30.4223 30.3105 30.8304 30.8403 31.4093 30.9151C31.4552 30.921 31.5006 30.9242 31.546 30.9242C32.0688 30.9242 32.5233 30.5359 32.5922 30.0034C32.6296 29.7188 32.6483 29.4283 32.6483 29.1393C32.6483 28.8536 32.6296 28.5652 32.5933 28.2827Z" fill="#FFCF5D"/>
<path d="M64.474 16.6669C62.8568 17.021 61.1676 16.8822 60.0749 15.6415C57.7774 13.0978 53.1519 13.5934 51.4467 16.6482C50.6638 18.0373 49.0525 18.6376 47.6111 18.2184C44.356 17.2544 40.7079 19.9044 40.6715 23.3379C40.6336 24.995 39.416 26.2378 38.0167 26.4947C34.7734 27.1329 32.642 30.8873 34.0642 34.1045C34.697 35.5304 34.2073 37.1593 32.9304 38.0346C32.4273 38.3689 31.9862 38.8074 31.6235 39.3153C32.7157 39.3521 33.8185 39.3719 34.9294 39.3719C43.3189 39.3719 51.2694 38.2979 57.317 36.3475C58.1267 36.0869 59.5884 35.5251 60.2517 35.2639C61.0047 34.0388 61.5895 34.8548 63.51 32.9205C64.8067 31.5704 65.4144 29.7017 65.2051 27.8939C65.0048 26.2047 66.223 25.0207 67.6927 24.1833C68.5237 23.7128 69.2725 22.9629 69.673 22.0321C71.0658 18.8774 67.7573 15.9246 64.474 16.6669Z" fill="#4FE267"/>
<path d="M57.0551 34.137C56.7235 30.2944 53.4919 27.2685 49.565 27.2685C45.418 27.2685 42.0449 30.6416 42.0449 34.7885C42.0449 35.7888 42.2425 36.7432 42.5987 37.6169C46.8557 37.1079 50.7789 36.2988 54.1205 35.2211C55.2399 34.8601 56.2113 34.4953 57.0551 34.137Z" fill="#C5324F"/>
<path d="M52.8596 30.5631C52.8596 30.5534 52.8596 30.5433 52.8596 30.5337C52.8526 28.7425 51.3856 27.2754 49.5944 27.2685C49.5847 27.2685 49.5746 27.2685 49.565 27.2685C45.4186 27.2685 42.0449 30.6416 42.0449 34.7885V34.8179C42.0492 35.9298 42.6169 36.9167 43.4751 37.5074C45.8389 37.1982 48.0915 36.795 50.1904 36.3036C51.8214 34.9231 52.8596 32.8627 52.8596 30.5631Z" fill="#FF5368"/>
<path d="M25.3951 10.4297C24.5732 9.60777 23.229 9.60777 22.4071 10.4297C21.5857 11.2511 21.5857 12.5958 22.4071 13.4172L25.3951 16.4047C26.2165 17.2266 27.5612 17.2266 28.3826 16.4047C29.204 15.5833 29.204 14.2391 28.3826 13.4172L25.3951 10.4297Z" fill="#FF7E40"/>
<path d="M58.4929 21.1637H54.268C53.1059 21.1637 52.1553 22.1143 52.1553 23.2764C52.1553 24.4385 53.1059 25.3891 54.268 25.3891H58.4929C59.655 25.3891 60.6057 24.4385 60.6057 23.2764C60.6057 22.1143 59.655 21.1637 58.4929 21.1637Z" fill="#FF7E40"/>
<path d="M11.5919 25.7817L8.60383 28.7692C7.78245 29.5906 7.78245 30.9353 8.60383 31.7572C9.42521 32.5786 10.77 32.5786 11.5919 31.7572L14.5794 28.7692C15.4013 27.9478 15.4013 26.603 14.5794 25.7817C13.7575 24.9597 12.4133 24.9597 11.5919 25.7817Z" fill="#FF7E40"/>
<path d="M64.6489 34.0285H5.35482C2.6023 34.0285 0.602257 36.6956 1.35848 39.3766C3.21219 45.9481 8.41657 51.6385 15.5665 55.3139H54.4378C61.5786 51.6433 66.7787 45.962 68.6383 39.4011C69.401 36.7106 67.4116 34.0285 64.6489 34.0285Z" fill="#E9E3D5"/>
<path d="M64.5938 38.1584L64.5564 38.3106C63.0296 43.6154 58.7545 48.3017 52.5092 51.5119C48.6581 53.4917 44.1972 55.3139 39.2844 55.3139H15.5664C15.5664 59.0565 18.8204 62.1979 22.515 62.1979H47.4896C48.5316 62.1979 49.6146 61.957 50.6149 61.4529C51.597 61.0598 54.4382 59.0096 54.4382 55.3139C61.5791 51.6428 66.7792 45.9615 68.6388 39.4006C68.6761 39.2687 68.7071 39.1373 68.7312 39.0059C69.2241 36.3485 65.2464 35.5357 64.5938 38.1584Z" fill="#D3CDBF"/>
</svg>
