<svg width="70" height="70" viewBox="0 0 70 70" fill="none" xmlns="http://www.w3.org/2000/svg">
<g clip-path="url(#clip0_108_965)">
<path d="M69.9999 35C69.9999 54.3302 54.3302 69.9999 35 69.9999C15.6703 69.9999 0 54.3302 0 35C0 15.6703 15.6703 0 35 0C54.3302 0 69.9999 15.6703 69.9999 35Z" fill="#E84444"/>
<path d="M68.4726 30.0599C68.3796 34.7367 67.3623 39.2217 65.6025 43.3398C60.1146 56.1801 47.3869 65.4401 32.804 65.7285C25.6182 65.8711 19.217 64.2866 13.9838 61.1575C11.9191 59.9228 8.40556 57.4993 5.41697 53.7085C2.31784 48.8187 0.398437 43.1086 0.0566406 36.9765C0.864135 26.4994 10.2534 17.8535 20.9559 17.5886C21.0307 17.5865 21.1049 17.5854 21.1791 17.5844C23.0857 17.5571 24.9453 17.1422 26.6602 16.3993C29.6263 15.1154 32.1594 12.8489 33.7482 9.89714C34.1359 9.17563 34.5081 8.46694 34.8627 7.77426C38.8468 -0.00267759 48.8358 -2.4305 55.5179 2.72048C63.6073 8.9572 68.6947 18.8389 68.4726 30.0599Z" fill="#FDE5BD"/>
<path d="M9.29476 57.7561C8.00394 56.6335 6.66133 55.2861 5.4095 53.6973C2.31517 48.8101 0.397903 43.1043 0.0566406 36.9765C0.864135 26.4994 10.2534 17.853 20.9559 17.5881C21.0307 17.5865 21.1049 17.5849 21.1791 17.5838C23.0857 17.5571 24.9453 17.1416 26.6602 16.3993C29.6263 15.1149 32.1594 12.8489 33.7476 9.89714C34.1359 9.17563 34.5076 8.46694 34.8627 7.77426C38.8468 -0.00267759 48.8358 -2.4305 55.5179 2.72048C57.2114 4.02625 58.7693 5.49437 60.1787 7.09868C59.6531 6.63726 59.1143 6.19025 58.5599 5.76247C51.8778 0.611488 41.8888 3.03931 37.9047 10.8168C37.5501 11.5089 37.1779 12.2176 36.7896 12.9391C35.2013 15.8909 32.6683 18.1574 29.7022 19.4418C27.9873 20.1841 26.1277 20.5991 24.2211 20.6263C24.1469 20.6274 24.0727 20.6285 23.9979 20.6306C13.2954 20.8955 3.90612 29.5414 3.09863 40.019C3.23909 42.5387 3.64657 44.9874 4.29225 47.3372C4.92244 50.2035 6.01832 52.7045 7.34385 54.8631C7.69419 55.5013 8.06376 56.1267 8.45148 56.7398C8.72866 57.0912 9.01064 57.4277 9.29476 57.7561Z" fill="#FDD78D"/>
<path d="M19.2022 24.8801C19.2534 24.879 19.3047 24.878 19.3544 24.8769C28.6609 24.7455 37.202 19.5363 41.6443 11.282C42.0983 10.4381 42.5501 9.57831 42.9864 8.72596C43.8959 6.95129 45.5184 5.68664 47.4389 5.25672C48.4285 5.03509 50.3489 4.86366 52.09 6.20521C53.0561 6.95022 53.9634 7.74863 54.8115 8.59618C60.2044 13.9896 63.1513 21.3591 62.9938 29.3091C62.6632 46.009 48.8076 59.8646 32.1077 60.1952C25.8272 60.3196 20.3947 59.0384 15.961 56.3874C11.9315 53.9771 5.12657 48.5543 4.82376 39.3087C4.7116 35.8817 6.08306 32.476 8.68552 29.7197C11.4989 26.7402 15.3329 24.9762 19.2022 24.8801Z" fill="#B7696A"/>
<path d="M51.8453 25.5119C50.9225 29.1553 47.6493 31.8806 44.5352 31.5991C41.4211 31.3171 39.6448 28.1352 40.5677 24.4919C41.4905 20.8491 44.7637 18.1238 47.8778 18.4052C50.9919 18.6872 52.7682 21.8691 51.8453 25.5119Z" fill="#FDD78D"/>
<path d="M44.5351 31.5985C44.2136 31.5697 43.9076 31.5083 43.616 31.4202C43.2144 30.2703 43.153 28.8946 43.5204 27.4452C44.4433 23.8018 47.7165 21.0765 50.8306 21.358C51.1521 21.3874 51.4581 21.4488 51.7497 21.5369C52.1513 22.6867 52.2122 24.0625 51.8453 25.5119C50.9225 29.1552 47.6492 31.8805 44.5351 31.5985Z" fill="#FDE5BD"/>
<path d="M34.3158 50.7296C34.8494 51.2637 34.8494 52.1294 34.3158 52.6634L34.2763 52.7024C33.7423 53.2365 32.8766 53.2365 32.3425 52.7024L15.5336 35.8935C15.0001 35.36 15.0001 34.4943 15.5336 33.9602L15.5731 33.9207C16.1072 33.3872 16.9729 33.3872 17.5064 33.9207L34.3158 50.7296ZM15.5336 41.8125C15.0001 41.2784 14.1344 41.2784 13.6003 41.8125L13.5608 41.8514C13.0273 42.3855 13.0273 43.2512 13.5608 43.7853L20.5051 50.7296C21.0392 51.2637 21.9049 51.2637 22.439 50.7296L22.4785 50.6901C23.012 50.1566 23.012 49.2909 22.4785 48.7568L15.5336 41.8125ZM47.1391 43.8248L32.303 28.9887C31.7695 28.4546 30.9038 28.4546 30.3697 28.9887L30.3302 29.0282C29.7967 29.5617 29.7967 30.4274 30.3302 30.9615L45.1663 45.7976C45.7003 46.3311 46.5661 46.3311 47.1001 45.7976L47.1391 45.7581C47.6732 45.224 47.6732 44.3583 47.1391 43.8248ZM25.3982 31.9479C24.8646 31.4138 23.9989 31.4138 23.4649 31.9479L23.4254 31.9874C22.8913 32.5209 22.8913 33.3866 23.4254 33.9207L39.2479 49.7432C39.7819 50.2773 40.6476 50.2773 41.1812 49.7432L41.2207 49.7037C41.7547 49.1696 41.7547 48.3039 41.2207 47.7704L25.3982 31.9479Z" fill="#8F4A4B"/>
</g>
<defs>
<clipPath id="clip0_108_965">
<rect width="69.9999" height="70" fill="white"/>
</clipPath>
</defs>
</svg>
