<svg width="30" height="30" viewBox="0 0 30 30" fill="none" xmlns="http://www.w3.org/2000/svg">
<path d="M25.2533 17.8831C24.5986 17.2043 23.8088 16.8414 22.9718 16.8414C22.1415 16.8414 21.345 17.1976 20.6632 17.8763L18.5301 19.9933C18.3546 19.8992 18.1791 19.8118 18.0104 19.7245C17.7673 19.6035 17.5378 19.4892 17.3421 19.3683C15.344 18.1048 13.5282 16.4583 11.7867 14.328C10.9429 13.2661 10.3759 12.3723 9.9641 11.4651C10.5176 10.961 11.0306 10.4368 11.5301 9.9328C11.7192 9.74462 11.9082 9.54973 12.0972 9.36156C13.5147 7.95027 13.5147 6.12231 12.0972 4.71102L10.2544 2.87634C10.0451 2.66801 9.82909 2.45296 9.62659 2.2379C9.22157 1.82124 8.79631 1.39113 8.35754 0.987903C7.70277 0.342742 6.91975 0 6.09622 0C5.2727 0 4.47617 0.342742 3.80115 0.987903C3.7944 0.994624 3.7944 0.994624 3.78765 1.00134L1.49257 3.30645C0.628545 4.16667 0.13578 5.21505 0.0277761 6.43145C-0.134229 8.39382 0.44629 10.2218 0.891804 11.418C1.98534 14.3548 3.61889 17.0766 6.05572 19.9933C9.01232 23.5081 12.5697 26.2836 16.6333 28.2392C18.1859 28.9718 20.2582 29.8387 22.5735 29.9866C22.7153 29.9933 22.8638 30 22.9988 30C24.5581 30 25.8676 29.4422 26.8936 28.3333C26.9004 28.3199 26.9139 28.3132 26.9206 28.2997C27.2717 27.8763 27.6767 27.4933 28.1019 27.0833C28.3922 26.8078 28.6892 26.5188 28.9795 26.2164C29.6477 25.5242 29.9987 24.7177 29.9987 23.8911C29.9987 23.0578 29.641 22.2581 28.9592 21.586L25.2533 17.8831ZM27.6699 24.9597C27.6632 24.9597 27.6632 24.9664 27.6699 24.9597C27.4067 25.2419 27.1367 25.4973 26.8464 25.7796C26.4076 26.1962 25.9621 26.6331 25.5436 27.1237C24.8618 27.8495 24.0586 28.1922 23.0055 28.1922C22.9043 28.1922 22.7963 28.1922 22.695 28.1855C20.6902 28.0578 18.8271 27.2782 17.4298 26.6129C13.6092 24.7715 10.2544 22.1573 7.46652 18.8441C5.16469 16.082 3.62564 13.5282 2.60636 10.7863C1.97859 9.1129 1.74908 7.80914 1.85034 6.5793C1.91784 5.79301 2.2216 5.14113 2.78187 4.58333L5.08369 2.29167C5.41445 1.98253 5.76546 1.81452 6.10972 1.81452C6.53499 1.81452 6.87925 2.06989 7.09525 2.28495C7.102 2.29167 7.10875 2.29839 7.1155 2.30511C7.52727 2.68817 7.91878 3.08468 8.33054 3.50806C8.5398 3.72312 8.75581 3.93817 8.97182 4.15995L10.8146 5.99462C11.5301 6.70699 11.5301 7.36559 10.8146 8.07796C10.6189 8.27285 10.4299 8.46774 10.2341 8.65591C9.66709 9.23387 9.12707 9.77151 8.5398 10.2957C8.5263 10.3091 8.5128 10.3159 8.50605 10.3293C7.92553 10.9073 8.03353 11.4718 8.15504 11.8548C8.16179 11.875 8.16854 11.8952 8.17529 11.9153C8.65455 13.0712 9.32958 14.1599 10.3556 15.457L10.3624 15.4637C12.2254 17.7487 14.1897 19.5296 16.3566 20.8938C16.6333 21.0685 16.9168 21.2097 17.1868 21.3441C17.4298 21.4651 17.6593 21.5793 17.8551 21.7003C17.8821 21.7137 17.9091 21.7339 17.9361 21.7473C18.1656 21.8616 18.3816 21.9153 18.6044 21.9153C19.1646 21.9153 19.5157 21.5659 19.6304 21.4516L21.939 19.1532C22.1685 18.9247 22.533 18.6492 22.9583 18.6492C23.3768 18.6492 23.721 18.9113 23.9303 19.1398C23.937 19.1465 23.937 19.1465 23.9438 19.1532L27.6632 22.8562C28.3584 23.5417 28.3584 24.2473 27.6699 24.9597Z" fill="#14C358"/>
</svg>
